%
M48
M72
T01C0.01200
T02C0.03543
T03C0.03937
T04C0.04000
T05C0.06299
T06C0.11811
T07C0.12598
T08C0.13780
%
T01
X298131Y109754
X294686Y109754
X304036Y114675
X308957Y113199
X304036Y118120
X288780Y115659
X275493Y124026
X268111Y124026
X264666Y124026
X261221Y124026
X261221Y131900
X264666Y131900
X268111Y131900
X275493Y131900
X270080Y136821
X287796Y139774
X298131Y135344
X298131Y131900
X301576Y131900
X311910Y150600
X318800Y157490
X336517Y156998
X307973Y173238
X302560Y177175
X297639Y165364
X287796Y162411
X238091Y160935
X218406Y159951
X218406Y156014
X208564Y143711
X208564Y135344
X206103Y132884
X223820Y131900
X231694Y131900
X235139Y131900
X238583Y131900
X236123Y126978
X247442Y126978
X238583Y115659
X239076Y111722
X234154Y106801
X229725Y109754
X223820Y114675
X205119Y106309
X205119Y102864
X170178Y111230
X147540Y127470
X147540Y147156
X151969Y148632
X148524Y152077
X139174Y155522
X142619Y161427
X131300Y169301
X126379Y164380
X122442Y164380
X119489Y162904
X114568Y162904
X103249Y179144
X79627Y156014
X84548Y150600
X99804Y140266
X146556Y171762
X158859Y155522
X181005Y151093
X192324Y151093
X183465Y136821
X285335Y88593
X289765Y191447
X57973Y191447
T02
X161300Y141250
X171300Y141250
X171300Y131250
X161300Y131250
X161300Y121250
X171300Y121250
T03
X43800Y81250
X53800Y81250
X63800Y81250
X73800Y81250
X68800Y71250
X58800Y71250
X48800Y71250
X38800Y71250
X113800Y71250
X123800Y71250
X133800Y71250
X143800Y71250
X138800Y81250
X128800Y81250
X118800Y81250
X148800Y81250
X188800Y71250
X198800Y71250
X208800Y71250
X218800Y71250
X213800Y81250
X203800Y81250
X193800Y81250
X223800Y81250
X263800Y71250
X273800Y71250
X283800Y71250
X293800Y71250
X288800Y81250
X278800Y81250
X268800Y81250
X298800Y81250
T04
X91300Y191250
X91300Y181250
X91300Y171250
X91300Y201250
X156300Y191250
X156300Y181250
X341300Y171250
X351300Y171250
X351300Y161250
X341300Y161250
X341300Y151250
X351300Y151250
X351300Y141250
X341300Y141250
T05
X26300Y56250
X86300Y56250
X101300Y56250
X161300Y56250
X176300Y56250
X236300Y56250
X251300Y56250
X311300Y56250
T06
X343406Y55325
X361910Y43514
X343406Y32096
T07
X36300Y46250
X76300Y46250
X111300Y46250
X151300Y46250
X186300Y46250
X226300Y46250
X261300Y46250
X301300Y46250
T08
X26300Y196250
X16300Y36250
X361300Y71250
X356300Y196250
M30
