G75*
%MOIN*%
%OFA0B0*%
%FSLAX25Y25*%
%IPPOS*%
%LPD*%
%AMOC8*
5,1,8,0,0,1.08239X$1,22.5*
%
%ADD10C,0.00000*%
%ADD11R,0.05800X0.01400*%
%ADD12R,0.02756X0.01772*%
%ADD13R,0.08000X0.02600*%
%ADD14R,0.01772X0.02756*%
%ADD15R,0.05118X0.06299*%
%ADD16R,0.02362X0.03150*%
%ADD17R,0.01969X0.03150*%
%ADD18R,0.05000X0.02200*%
%ADD19R,0.02200X0.05000*%
%ADD20R,0.07600X0.21000*%
%ADD21R,0.05906X0.05118*%
%ADD22R,0.05900X0.07900*%
%ADD23R,0.15000X0.07900*%
%ADD24C,0.06400*%
%ADD25R,0.05118X0.05906*%
%ADD26R,0.04724X0.12598*%
%ADD27C,0.06000*%
%ADD28C,0.05937*%
%ADD29C,0.09449*%
%ADD30C,0.18898*%
%ADD31OC8,0.07400*%
%ADD32R,0.07400X0.07400*%
%ADD33C,0.07400*%
%ADD34C,0.01800*%
%ADD35C,0.02400*%
%ADD36C,0.01200*%
D10*
X0006300Y0016250D02*
X0006300Y0216211D01*
X0375001Y0216211D01*
X0375001Y0016250D01*
X0006300Y0016250D01*
X0009410Y0036250D02*
X0009412Y0036419D01*
X0009418Y0036588D01*
X0009429Y0036757D01*
X0009443Y0036925D01*
X0009462Y0037093D01*
X0009485Y0037261D01*
X0009511Y0037428D01*
X0009542Y0037594D01*
X0009577Y0037760D01*
X0009616Y0037924D01*
X0009660Y0038088D01*
X0009707Y0038250D01*
X0009758Y0038411D01*
X0009813Y0038571D01*
X0009872Y0038730D01*
X0009934Y0038887D01*
X0010001Y0039042D01*
X0010072Y0039196D01*
X0010146Y0039348D01*
X0010224Y0039498D01*
X0010305Y0039646D01*
X0010390Y0039792D01*
X0010479Y0039936D01*
X0010571Y0040078D01*
X0010667Y0040217D01*
X0010766Y0040354D01*
X0010868Y0040489D01*
X0010974Y0040621D01*
X0011083Y0040750D01*
X0011195Y0040877D01*
X0011310Y0041001D01*
X0011428Y0041122D01*
X0011549Y0041240D01*
X0011673Y0041355D01*
X0011800Y0041467D01*
X0011929Y0041576D01*
X0012061Y0041682D01*
X0012196Y0041784D01*
X0012333Y0041883D01*
X0012472Y0041979D01*
X0012614Y0042071D01*
X0012758Y0042160D01*
X0012904Y0042245D01*
X0013052Y0042326D01*
X0013202Y0042404D01*
X0013354Y0042478D01*
X0013508Y0042549D01*
X0013663Y0042616D01*
X0013820Y0042678D01*
X0013979Y0042737D01*
X0014139Y0042792D01*
X0014300Y0042843D01*
X0014462Y0042890D01*
X0014626Y0042934D01*
X0014790Y0042973D01*
X0014956Y0043008D01*
X0015122Y0043039D01*
X0015289Y0043065D01*
X0015457Y0043088D01*
X0015625Y0043107D01*
X0015793Y0043121D01*
X0015962Y0043132D01*
X0016131Y0043138D01*
X0016300Y0043140D01*
X0016469Y0043138D01*
X0016638Y0043132D01*
X0016807Y0043121D01*
X0016975Y0043107D01*
X0017143Y0043088D01*
X0017311Y0043065D01*
X0017478Y0043039D01*
X0017644Y0043008D01*
X0017810Y0042973D01*
X0017974Y0042934D01*
X0018138Y0042890D01*
X0018300Y0042843D01*
X0018461Y0042792D01*
X0018621Y0042737D01*
X0018780Y0042678D01*
X0018937Y0042616D01*
X0019092Y0042549D01*
X0019246Y0042478D01*
X0019398Y0042404D01*
X0019548Y0042326D01*
X0019696Y0042245D01*
X0019842Y0042160D01*
X0019986Y0042071D01*
X0020128Y0041979D01*
X0020267Y0041883D01*
X0020404Y0041784D01*
X0020539Y0041682D01*
X0020671Y0041576D01*
X0020800Y0041467D01*
X0020927Y0041355D01*
X0021051Y0041240D01*
X0021172Y0041122D01*
X0021290Y0041001D01*
X0021405Y0040877D01*
X0021517Y0040750D01*
X0021626Y0040621D01*
X0021732Y0040489D01*
X0021834Y0040354D01*
X0021933Y0040217D01*
X0022029Y0040078D01*
X0022121Y0039936D01*
X0022210Y0039792D01*
X0022295Y0039646D01*
X0022376Y0039498D01*
X0022454Y0039348D01*
X0022528Y0039196D01*
X0022599Y0039042D01*
X0022666Y0038887D01*
X0022728Y0038730D01*
X0022787Y0038571D01*
X0022842Y0038411D01*
X0022893Y0038250D01*
X0022940Y0038088D01*
X0022984Y0037924D01*
X0023023Y0037760D01*
X0023058Y0037594D01*
X0023089Y0037428D01*
X0023115Y0037261D01*
X0023138Y0037093D01*
X0023157Y0036925D01*
X0023171Y0036757D01*
X0023182Y0036588D01*
X0023188Y0036419D01*
X0023190Y0036250D01*
X0023188Y0036081D01*
X0023182Y0035912D01*
X0023171Y0035743D01*
X0023157Y0035575D01*
X0023138Y0035407D01*
X0023115Y0035239D01*
X0023089Y0035072D01*
X0023058Y0034906D01*
X0023023Y0034740D01*
X0022984Y0034576D01*
X0022940Y0034412D01*
X0022893Y0034250D01*
X0022842Y0034089D01*
X0022787Y0033929D01*
X0022728Y0033770D01*
X0022666Y0033613D01*
X0022599Y0033458D01*
X0022528Y0033304D01*
X0022454Y0033152D01*
X0022376Y0033002D01*
X0022295Y0032854D01*
X0022210Y0032708D01*
X0022121Y0032564D01*
X0022029Y0032422D01*
X0021933Y0032283D01*
X0021834Y0032146D01*
X0021732Y0032011D01*
X0021626Y0031879D01*
X0021517Y0031750D01*
X0021405Y0031623D01*
X0021290Y0031499D01*
X0021172Y0031378D01*
X0021051Y0031260D01*
X0020927Y0031145D01*
X0020800Y0031033D01*
X0020671Y0030924D01*
X0020539Y0030818D01*
X0020404Y0030716D01*
X0020267Y0030617D01*
X0020128Y0030521D01*
X0019986Y0030429D01*
X0019842Y0030340D01*
X0019696Y0030255D01*
X0019548Y0030174D01*
X0019398Y0030096D01*
X0019246Y0030022D01*
X0019092Y0029951D01*
X0018937Y0029884D01*
X0018780Y0029822D01*
X0018621Y0029763D01*
X0018461Y0029708D01*
X0018300Y0029657D01*
X0018138Y0029610D01*
X0017974Y0029566D01*
X0017810Y0029527D01*
X0017644Y0029492D01*
X0017478Y0029461D01*
X0017311Y0029435D01*
X0017143Y0029412D01*
X0016975Y0029393D01*
X0016807Y0029379D01*
X0016638Y0029368D01*
X0016469Y0029362D01*
X0016300Y0029360D01*
X0016131Y0029362D01*
X0015962Y0029368D01*
X0015793Y0029379D01*
X0015625Y0029393D01*
X0015457Y0029412D01*
X0015289Y0029435D01*
X0015122Y0029461D01*
X0014956Y0029492D01*
X0014790Y0029527D01*
X0014626Y0029566D01*
X0014462Y0029610D01*
X0014300Y0029657D01*
X0014139Y0029708D01*
X0013979Y0029763D01*
X0013820Y0029822D01*
X0013663Y0029884D01*
X0013508Y0029951D01*
X0013354Y0030022D01*
X0013202Y0030096D01*
X0013052Y0030174D01*
X0012904Y0030255D01*
X0012758Y0030340D01*
X0012614Y0030429D01*
X0012472Y0030521D01*
X0012333Y0030617D01*
X0012196Y0030716D01*
X0012061Y0030818D01*
X0011929Y0030924D01*
X0011800Y0031033D01*
X0011673Y0031145D01*
X0011549Y0031260D01*
X0011428Y0031378D01*
X0011310Y0031499D01*
X0011195Y0031623D01*
X0011083Y0031750D01*
X0010974Y0031879D01*
X0010868Y0032011D01*
X0010766Y0032146D01*
X0010667Y0032283D01*
X0010571Y0032422D01*
X0010479Y0032564D01*
X0010390Y0032708D01*
X0010305Y0032854D01*
X0010224Y0033002D01*
X0010146Y0033152D01*
X0010072Y0033304D01*
X0010001Y0033458D01*
X0009934Y0033613D01*
X0009872Y0033770D01*
X0009813Y0033929D01*
X0009758Y0034089D01*
X0009707Y0034250D01*
X0009660Y0034412D01*
X0009616Y0034576D01*
X0009577Y0034740D01*
X0009542Y0034906D01*
X0009511Y0035072D01*
X0009485Y0035239D01*
X0009462Y0035407D01*
X0009443Y0035575D01*
X0009429Y0035743D01*
X0009418Y0035912D01*
X0009412Y0036081D01*
X0009410Y0036250D01*
X0030001Y0046250D02*
X0030003Y0046408D01*
X0030009Y0046566D01*
X0030019Y0046724D01*
X0030033Y0046882D01*
X0030051Y0047039D01*
X0030072Y0047196D01*
X0030098Y0047352D01*
X0030128Y0047508D01*
X0030161Y0047663D01*
X0030199Y0047816D01*
X0030240Y0047969D01*
X0030285Y0048121D01*
X0030334Y0048272D01*
X0030387Y0048421D01*
X0030443Y0048569D01*
X0030503Y0048715D01*
X0030567Y0048860D01*
X0030635Y0049003D01*
X0030706Y0049145D01*
X0030780Y0049285D01*
X0030858Y0049422D01*
X0030940Y0049558D01*
X0031024Y0049692D01*
X0031113Y0049823D01*
X0031204Y0049952D01*
X0031299Y0050079D01*
X0031396Y0050204D01*
X0031497Y0050326D01*
X0031601Y0050445D01*
X0031708Y0050562D01*
X0031818Y0050676D01*
X0031931Y0050787D01*
X0032046Y0050896D01*
X0032164Y0051001D01*
X0032285Y0051103D01*
X0032408Y0051203D01*
X0032534Y0051299D01*
X0032662Y0051392D01*
X0032792Y0051482D01*
X0032925Y0051568D01*
X0033060Y0051652D01*
X0033196Y0051731D01*
X0033335Y0051808D01*
X0033476Y0051880D01*
X0033618Y0051950D01*
X0033762Y0052015D01*
X0033908Y0052077D01*
X0034055Y0052135D01*
X0034204Y0052190D01*
X0034354Y0052241D01*
X0034505Y0052288D01*
X0034657Y0052331D01*
X0034810Y0052370D01*
X0034965Y0052406D01*
X0035120Y0052437D01*
X0035276Y0052465D01*
X0035432Y0052489D01*
X0035589Y0052509D01*
X0035747Y0052525D01*
X0035904Y0052537D01*
X0036063Y0052545D01*
X0036221Y0052549D01*
X0036379Y0052549D01*
X0036537Y0052545D01*
X0036696Y0052537D01*
X0036853Y0052525D01*
X0037011Y0052509D01*
X0037168Y0052489D01*
X0037324Y0052465D01*
X0037480Y0052437D01*
X0037635Y0052406D01*
X0037790Y0052370D01*
X0037943Y0052331D01*
X0038095Y0052288D01*
X0038246Y0052241D01*
X0038396Y0052190D01*
X0038545Y0052135D01*
X0038692Y0052077D01*
X0038838Y0052015D01*
X0038982Y0051950D01*
X0039124Y0051880D01*
X0039265Y0051808D01*
X0039404Y0051731D01*
X0039540Y0051652D01*
X0039675Y0051568D01*
X0039808Y0051482D01*
X0039938Y0051392D01*
X0040066Y0051299D01*
X0040192Y0051203D01*
X0040315Y0051103D01*
X0040436Y0051001D01*
X0040554Y0050896D01*
X0040669Y0050787D01*
X0040782Y0050676D01*
X0040892Y0050562D01*
X0040999Y0050445D01*
X0041103Y0050326D01*
X0041204Y0050204D01*
X0041301Y0050079D01*
X0041396Y0049952D01*
X0041487Y0049823D01*
X0041576Y0049692D01*
X0041660Y0049558D01*
X0041742Y0049422D01*
X0041820Y0049285D01*
X0041894Y0049145D01*
X0041965Y0049003D01*
X0042033Y0048860D01*
X0042097Y0048715D01*
X0042157Y0048569D01*
X0042213Y0048421D01*
X0042266Y0048272D01*
X0042315Y0048121D01*
X0042360Y0047969D01*
X0042401Y0047816D01*
X0042439Y0047663D01*
X0042472Y0047508D01*
X0042502Y0047352D01*
X0042528Y0047196D01*
X0042549Y0047039D01*
X0042567Y0046882D01*
X0042581Y0046724D01*
X0042591Y0046566D01*
X0042597Y0046408D01*
X0042599Y0046250D01*
X0042597Y0046092D01*
X0042591Y0045934D01*
X0042581Y0045776D01*
X0042567Y0045618D01*
X0042549Y0045461D01*
X0042528Y0045304D01*
X0042502Y0045148D01*
X0042472Y0044992D01*
X0042439Y0044837D01*
X0042401Y0044684D01*
X0042360Y0044531D01*
X0042315Y0044379D01*
X0042266Y0044228D01*
X0042213Y0044079D01*
X0042157Y0043931D01*
X0042097Y0043785D01*
X0042033Y0043640D01*
X0041965Y0043497D01*
X0041894Y0043355D01*
X0041820Y0043215D01*
X0041742Y0043078D01*
X0041660Y0042942D01*
X0041576Y0042808D01*
X0041487Y0042677D01*
X0041396Y0042548D01*
X0041301Y0042421D01*
X0041204Y0042296D01*
X0041103Y0042174D01*
X0040999Y0042055D01*
X0040892Y0041938D01*
X0040782Y0041824D01*
X0040669Y0041713D01*
X0040554Y0041604D01*
X0040436Y0041499D01*
X0040315Y0041397D01*
X0040192Y0041297D01*
X0040066Y0041201D01*
X0039938Y0041108D01*
X0039808Y0041018D01*
X0039675Y0040932D01*
X0039540Y0040848D01*
X0039404Y0040769D01*
X0039265Y0040692D01*
X0039124Y0040620D01*
X0038982Y0040550D01*
X0038838Y0040485D01*
X0038692Y0040423D01*
X0038545Y0040365D01*
X0038396Y0040310D01*
X0038246Y0040259D01*
X0038095Y0040212D01*
X0037943Y0040169D01*
X0037790Y0040130D01*
X0037635Y0040094D01*
X0037480Y0040063D01*
X0037324Y0040035D01*
X0037168Y0040011D01*
X0037011Y0039991D01*
X0036853Y0039975D01*
X0036696Y0039963D01*
X0036537Y0039955D01*
X0036379Y0039951D01*
X0036221Y0039951D01*
X0036063Y0039955D01*
X0035904Y0039963D01*
X0035747Y0039975D01*
X0035589Y0039991D01*
X0035432Y0040011D01*
X0035276Y0040035D01*
X0035120Y0040063D01*
X0034965Y0040094D01*
X0034810Y0040130D01*
X0034657Y0040169D01*
X0034505Y0040212D01*
X0034354Y0040259D01*
X0034204Y0040310D01*
X0034055Y0040365D01*
X0033908Y0040423D01*
X0033762Y0040485D01*
X0033618Y0040550D01*
X0033476Y0040620D01*
X0033335Y0040692D01*
X0033196Y0040769D01*
X0033060Y0040848D01*
X0032925Y0040932D01*
X0032792Y0041018D01*
X0032662Y0041108D01*
X0032534Y0041201D01*
X0032408Y0041297D01*
X0032285Y0041397D01*
X0032164Y0041499D01*
X0032046Y0041604D01*
X0031931Y0041713D01*
X0031818Y0041824D01*
X0031708Y0041938D01*
X0031601Y0042055D01*
X0031497Y0042174D01*
X0031396Y0042296D01*
X0031299Y0042421D01*
X0031204Y0042548D01*
X0031113Y0042677D01*
X0031024Y0042808D01*
X0030940Y0042942D01*
X0030858Y0043078D01*
X0030780Y0043215D01*
X0030706Y0043355D01*
X0030635Y0043497D01*
X0030567Y0043640D01*
X0030503Y0043785D01*
X0030443Y0043931D01*
X0030387Y0044079D01*
X0030334Y0044228D01*
X0030285Y0044379D01*
X0030240Y0044531D01*
X0030199Y0044684D01*
X0030161Y0044837D01*
X0030128Y0044992D01*
X0030098Y0045148D01*
X0030072Y0045304D01*
X0030051Y0045461D01*
X0030033Y0045618D01*
X0030019Y0045776D01*
X0030009Y0045934D01*
X0030003Y0046092D01*
X0030001Y0046250D01*
X0070001Y0046250D02*
X0070003Y0046408D01*
X0070009Y0046566D01*
X0070019Y0046724D01*
X0070033Y0046882D01*
X0070051Y0047039D01*
X0070072Y0047196D01*
X0070098Y0047352D01*
X0070128Y0047508D01*
X0070161Y0047663D01*
X0070199Y0047816D01*
X0070240Y0047969D01*
X0070285Y0048121D01*
X0070334Y0048272D01*
X0070387Y0048421D01*
X0070443Y0048569D01*
X0070503Y0048715D01*
X0070567Y0048860D01*
X0070635Y0049003D01*
X0070706Y0049145D01*
X0070780Y0049285D01*
X0070858Y0049422D01*
X0070940Y0049558D01*
X0071024Y0049692D01*
X0071113Y0049823D01*
X0071204Y0049952D01*
X0071299Y0050079D01*
X0071396Y0050204D01*
X0071497Y0050326D01*
X0071601Y0050445D01*
X0071708Y0050562D01*
X0071818Y0050676D01*
X0071931Y0050787D01*
X0072046Y0050896D01*
X0072164Y0051001D01*
X0072285Y0051103D01*
X0072408Y0051203D01*
X0072534Y0051299D01*
X0072662Y0051392D01*
X0072792Y0051482D01*
X0072925Y0051568D01*
X0073060Y0051652D01*
X0073196Y0051731D01*
X0073335Y0051808D01*
X0073476Y0051880D01*
X0073618Y0051950D01*
X0073762Y0052015D01*
X0073908Y0052077D01*
X0074055Y0052135D01*
X0074204Y0052190D01*
X0074354Y0052241D01*
X0074505Y0052288D01*
X0074657Y0052331D01*
X0074810Y0052370D01*
X0074965Y0052406D01*
X0075120Y0052437D01*
X0075276Y0052465D01*
X0075432Y0052489D01*
X0075589Y0052509D01*
X0075747Y0052525D01*
X0075904Y0052537D01*
X0076063Y0052545D01*
X0076221Y0052549D01*
X0076379Y0052549D01*
X0076537Y0052545D01*
X0076696Y0052537D01*
X0076853Y0052525D01*
X0077011Y0052509D01*
X0077168Y0052489D01*
X0077324Y0052465D01*
X0077480Y0052437D01*
X0077635Y0052406D01*
X0077790Y0052370D01*
X0077943Y0052331D01*
X0078095Y0052288D01*
X0078246Y0052241D01*
X0078396Y0052190D01*
X0078545Y0052135D01*
X0078692Y0052077D01*
X0078838Y0052015D01*
X0078982Y0051950D01*
X0079124Y0051880D01*
X0079265Y0051808D01*
X0079404Y0051731D01*
X0079540Y0051652D01*
X0079675Y0051568D01*
X0079808Y0051482D01*
X0079938Y0051392D01*
X0080066Y0051299D01*
X0080192Y0051203D01*
X0080315Y0051103D01*
X0080436Y0051001D01*
X0080554Y0050896D01*
X0080669Y0050787D01*
X0080782Y0050676D01*
X0080892Y0050562D01*
X0080999Y0050445D01*
X0081103Y0050326D01*
X0081204Y0050204D01*
X0081301Y0050079D01*
X0081396Y0049952D01*
X0081487Y0049823D01*
X0081576Y0049692D01*
X0081660Y0049558D01*
X0081742Y0049422D01*
X0081820Y0049285D01*
X0081894Y0049145D01*
X0081965Y0049003D01*
X0082033Y0048860D01*
X0082097Y0048715D01*
X0082157Y0048569D01*
X0082213Y0048421D01*
X0082266Y0048272D01*
X0082315Y0048121D01*
X0082360Y0047969D01*
X0082401Y0047816D01*
X0082439Y0047663D01*
X0082472Y0047508D01*
X0082502Y0047352D01*
X0082528Y0047196D01*
X0082549Y0047039D01*
X0082567Y0046882D01*
X0082581Y0046724D01*
X0082591Y0046566D01*
X0082597Y0046408D01*
X0082599Y0046250D01*
X0082597Y0046092D01*
X0082591Y0045934D01*
X0082581Y0045776D01*
X0082567Y0045618D01*
X0082549Y0045461D01*
X0082528Y0045304D01*
X0082502Y0045148D01*
X0082472Y0044992D01*
X0082439Y0044837D01*
X0082401Y0044684D01*
X0082360Y0044531D01*
X0082315Y0044379D01*
X0082266Y0044228D01*
X0082213Y0044079D01*
X0082157Y0043931D01*
X0082097Y0043785D01*
X0082033Y0043640D01*
X0081965Y0043497D01*
X0081894Y0043355D01*
X0081820Y0043215D01*
X0081742Y0043078D01*
X0081660Y0042942D01*
X0081576Y0042808D01*
X0081487Y0042677D01*
X0081396Y0042548D01*
X0081301Y0042421D01*
X0081204Y0042296D01*
X0081103Y0042174D01*
X0080999Y0042055D01*
X0080892Y0041938D01*
X0080782Y0041824D01*
X0080669Y0041713D01*
X0080554Y0041604D01*
X0080436Y0041499D01*
X0080315Y0041397D01*
X0080192Y0041297D01*
X0080066Y0041201D01*
X0079938Y0041108D01*
X0079808Y0041018D01*
X0079675Y0040932D01*
X0079540Y0040848D01*
X0079404Y0040769D01*
X0079265Y0040692D01*
X0079124Y0040620D01*
X0078982Y0040550D01*
X0078838Y0040485D01*
X0078692Y0040423D01*
X0078545Y0040365D01*
X0078396Y0040310D01*
X0078246Y0040259D01*
X0078095Y0040212D01*
X0077943Y0040169D01*
X0077790Y0040130D01*
X0077635Y0040094D01*
X0077480Y0040063D01*
X0077324Y0040035D01*
X0077168Y0040011D01*
X0077011Y0039991D01*
X0076853Y0039975D01*
X0076696Y0039963D01*
X0076537Y0039955D01*
X0076379Y0039951D01*
X0076221Y0039951D01*
X0076063Y0039955D01*
X0075904Y0039963D01*
X0075747Y0039975D01*
X0075589Y0039991D01*
X0075432Y0040011D01*
X0075276Y0040035D01*
X0075120Y0040063D01*
X0074965Y0040094D01*
X0074810Y0040130D01*
X0074657Y0040169D01*
X0074505Y0040212D01*
X0074354Y0040259D01*
X0074204Y0040310D01*
X0074055Y0040365D01*
X0073908Y0040423D01*
X0073762Y0040485D01*
X0073618Y0040550D01*
X0073476Y0040620D01*
X0073335Y0040692D01*
X0073196Y0040769D01*
X0073060Y0040848D01*
X0072925Y0040932D01*
X0072792Y0041018D01*
X0072662Y0041108D01*
X0072534Y0041201D01*
X0072408Y0041297D01*
X0072285Y0041397D01*
X0072164Y0041499D01*
X0072046Y0041604D01*
X0071931Y0041713D01*
X0071818Y0041824D01*
X0071708Y0041938D01*
X0071601Y0042055D01*
X0071497Y0042174D01*
X0071396Y0042296D01*
X0071299Y0042421D01*
X0071204Y0042548D01*
X0071113Y0042677D01*
X0071024Y0042808D01*
X0070940Y0042942D01*
X0070858Y0043078D01*
X0070780Y0043215D01*
X0070706Y0043355D01*
X0070635Y0043497D01*
X0070567Y0043640D01*
X0070503Y0043785D01*
X0070443Y0043931D01*
X0070387Y0044079D01*
X0070334Y0044228D01*
X0070285Y0044379D01*
X0070240Y0044531D01*
X0070199Y0044684D01*
X0070161Y0044837D01*
X0070128Y0044992D01*
X0070098Y0045148D01*
X0070072Y0045304D01*
X0070051Y0045461D01*
X0070033Y0045618D01*
X0070019Y0045776D01*
X0070009Y0045934D01*
X0070003Y0046092D01*
X0070001Y0046250D01*
X0105001Y0046250D02*
X0105003Y0046408D01*
X0105009Y0046566D01*
X0105019Y0046724D01*
X0105033Y0046882D01*
X0105051Y0047039D01*
X0105072Y0047196D01*
X0105098Y0047352D01*
X0105128Y0047508D01*
X0105161Y0047663D01*
X0105199Y0047816D01*
X0105240Y0047969D01*
X0105285Y0048121D01*
X0105334Y0048272D01*
X0105387Y0048421D01*
X0105443Y0048569D01*
X0105503Y0048715D01*
X0105567Y0048860D01*
X0105635Y0049003D01*
X0105706Y0049145D01*
X0105780Y0049285D01*
X0105858Y0049422D01*
X0105940Y0049558D01*
X0106024Y0049692D01*
X0106113Y0049823D01*
X0106204Y0049952D01*
X0106299Y0050079D01*
X0106396Y0050204D01*
X0106497Y0050326D01*
X0106601Y0050445D01*
X0106708Y0050562D01*
X0106818Y0050676D01*
X0106931Y0050787D01*
X0107046Y0050896D01*
X0107164Y0051001D01*
X0107285Y0051103D01*
X0107408Y0051203D01*
X0107534Y0051299D01*
X0107662Y0051392D01*
X0107792Y0051482D01*
X0107925Y0051568D01*
X0108060Y0051652D01*
X0108196Y0051731D01*
X0108335Y0051808D01*
X0108476Y0051880D01*
X0108618Y0051950D01*
X0108762Y0052015D01*
X0108908Y0052077D01*
X0109055Y0052135D01*
X0109204Y0052190D01*
X0109354Y0052241D01*
X0109505Y0052288D01*
X0109657Y0052331D01*
X0109810Y0052370D01*
X0109965Y0052406D01*
X0110120Y0052437D01*
X0110276Y0052465D01*
X0110432Y0052489D01*
X0110589Y0052509D01*
X0110747Y0052525D01*
X0110904Y0052537D01*
X0111063Y0052545D01*
X0111221Y0052549D01*
X0111379Y0052549D01*
X0111537Y0052545D01*
X0111696Y0052537D01*
X0111853Y0052525D01*
X0112011Y0052509D01*
X0112168Y0052489D01*
X0112324Y0052465D01*
X0112480Y0052437D01*
X0112635Y0052406D01*
X0112790Y0052370D01*
X0112943Y0052331D01*
X0113095Y0052288D01*
X0113246Y0052241D01*
X0113396Y0052190D01*
X0113545Y0052135D01*
X0113692Y0052077D01*
X0113838Y0052015D01*
X0113982Y0051950D01*
X0114124Y0051880D01*
X0114265Y0051808D01*
X0114404Y0051731D01*
X0114540Y0051652D01*
X0114675Y0051568D01*
X0114808Y0051482D01*
X0114938Y0051392D01*
X0115066Y0051299D01*
X0115192Y0051203D01*
X0115315Y0051103D01*
X0115436Y0051001D01*
X0115554Y0050896D01*
X0115669Y0050787D01*
X0115782Y0050676D01*
X0115892Y0050562D01*
X0115999Y0050445D01*
X0116103Y0050326D01*
X0116204Y0050204D01*
X0116301Y0050079D01*
X0116396Y0049952D01*
X0116487Y0049823D01*
X0116576Y0049692D01*
X0116660Y0049558D01*
X0116742Y0049422D01*
X0116820Y0049285D01*
X0116894Y0049145D01*
X0116965Y0049003D01*
X0117033Y0048860D01*
X0117097Y0048715D01*
X0117157Y0048569D01*
X0117213Y0048421D01*
X0117266Y0048272D01*
X0117315Y0048121D01*
X0117360Y0047969D01*
X0117401Y0047816D01*
X0117439Y0047663D01*
X0117472Y0047508D01*
X0117502Y0047352D01*
X0117528Y0047196D01*
X0117549Y0047039D01*
X0117567Y0046882D01*
X0117581Y0046724D01*
X0117591Y0046566D01*
X0117597Y0046408D01*
X0117599Y0046250D01*
X0117597Y0046092D01*
X0117591Y0045934D01*
X0117581Y0045776D01*
X0117567Y0045618D01*
X0117549Y0045461D01*
X0117528Y0045304D01*
X0117502Y0045148D01*
X0117472Y0044992D01*
X0117439Y0044837D01*
X0117401Y0044684D01*
X0117360Y0044531D01*
X0117315Y0044379D01*
X0117266Y0044228D01*
X0117213Y0044079D01*
X0117157Y0043931D01*
X0117097Y0043785D01*
X0117033Y0043640D01*
X0116965Y0043497D01*
X0116894Y0043355D01*
X0116820Y0043215D01*
X0116742Y0043078D01*
X0116660Y0042942D01*
X0116576Y0042808D01*
X0116487Y0042677D01*
X0116396Y0042548D01*
X0116301Y0042421D01*
X0116204Y0042296D01*
X0116103Y0042174D01*
X0115999Y0042055D01*
X0115892Y0041938D01*
X0115782Y0041824D01*
X0115669Y0041713D01*
X0115554Y0041604D01*
X0115436Y0041499D01*
X0115315Y0041397D01*
X0115192Y0041297D01*
X0115066Y0041201D01*
X0114938Y0041108D01*
X0114808Y0041018D01*
X0114675Y0040932D01*
X0114540Y0040848D01*
X0114404Y0040769D01*
X0114265Y0040692D01*
X0114124Y0040620D01*
X0113982Y0040550D01*
X0113838Y0040485D01*
X0113692Y0040423D01*
X0113545Y0040365D01*
X0113396Y0040310D01*
X0113246Y0040259D01*
X0113095Y0040212D01*
X0112943Y0040169D01*
X0112790Y0040130D01*
X0112635Y0040094D01*
X0112480Y0040063D01*
X0112324Y0040035D01*
X0112168Y0040011D01*
X0112011Y0039991D01*
X0111853Y0039975D01*
X0111696Y0039963D01*
X0111537Y0039955D01*
X0111379Y0039951D01*
X0111221Y0039951D01*
X0111063Y0039955D01*
X0110904Y0039963D01*
X0110747Y0039975D01*
X0110589Y0039991D01*
X0110432Y0040011D01*
X0110276Y0040035D01*
X0110120Y0040063D01*
X0109965Y0040094D01*
X0109810Y0040130D01*
X0109657Y0040169D01*
X0109505Y0040212D01*
X0109354Y0040259D01*
X0109204Y0040310D01*
X0109055Y0040365D01*
X0108908Y0040423D01*
X0108762Y0040485D01*
X0108618Y0040550D01*
X0108476Y0040620D01*
X0108335Y0040692D01*
X0108196Y0040769D01*
X0108060Y0040848D01*
X0107925Y0040932D01*
X0107792Y0041018D01*
X0107662Y0041108D01*
X0107534Y0041201D01*
X0107408Y0041297D01*
X0107285Y0041397D01*
X0107164Y0041499D01*
X0107046Y0041604D01*
X0106931Y0041713D01*
X0106818Y0041824D01*
X0106708Y0041938D01*
X0106601Y0042055D01*
X0106497Y0042174D01*
X0106396Y0042296D01*
X0106299Y0042421D01*
X0106204Y0042548D01*
X0106113Y0042677D01*
X0106024Y0042808D01*
X0105940Y0042942D01*
X0105858Y0043078D01*
X0105780Y0043215D01*
X0105706Y0043355D01*
X0105635Y0043497D01*
X0105567Y0043640D01*
X0105503Y0043785D01*
X0105443Y0043931D01*
X0105387Y0044079D01*
X0105334Y0044228D01*
X0105285Y0044379D01*
X0105240Y0044531D01*
X0105199Y0044684D01*
X0105161Y0044837D01*
X0105128Y0044992D01*
X0105098Y0045148D01*
X0105072Y0045304D01*
X0105051Y0045461D01*
X0105033Y0045618D01*
X0105019Y0045776D01*
X0105009Y0045934D01*
X0105003Y0046092D01*
X0105001Y0046250D01*
X0145001Y0046250D02*
X0145003Y0046408D01*
X0145009Y0046566D01*
X0145019Y0046724D01*
X0145033Y0046882D01*
X0145051Y0047039D01*
X0145072Y0047196D01*
X0145098Y0047352D01*
X0145128Y0047508D01*
X0145161Y0047663D01*
X0145199Y0047816D01*
X0145240Y0047969D01*
X0145285Y0048121D01*
X0145334Y0048272D01*
X0145387Y0048421D01*
X0145443Y0048569D01*
X0145503Y0048715D01*
X0145567Y0048860D01*
X0145635Y0049003D01*
X0145706Y0049145D01*
X0145780Y0049285D01*
X0145858Y0049422D01*
X0145940Y0049558D01*
X0146024Y0049692D01*
X0146113Y0049823D01*
X0146204Y0049952D01*
X0146299Y0050079D01*
X0146396Y0050204D01*
X0146497Y0050326D01*
X0146601Y0050445D01*
X0146708Y0050562D01*
X0146818Y0050676D01*
X0146931Y0050787D01*
X0147046Y0050896D01*
X0147164Y0051001D01*
X0147285Y0051103D01*
X0147408Y0051203D01*
X0147534Y0051299D01*
X0147662Y0051392D01*
X0147792Y0051482D01*
X0147925Y0051568D01*
X0148060Y0051652D01*
X0148196Y0051731D01*
X0148335Y0051808D01*
X0148476Y0051880D01*
X0148618Y0051950D01*
X0148762Y0052015D01*
X0148908Y0052077D01*
X0149055Y0052135D01*
X0149204Y0052190D01*
X0149354Y0052241D01*
X0149505Y0052288D01*
X0149657Y0052331D01*
X0149810Y0052370D01*
X0149965Y0052406D01*
X0150120Y0052437D01*
X0150276Y0052465D01*
X0150432Y0052489D01*
X0150589Y0052509D01*
X0150747Y0052525D01*
X0150904Y0052537D01*
X0151063Y0052545D01*
X0151221Y0052549D01*
X0151379Y0052549D01*
X0151537Y0052545D01*
X0151696Y0052537D01*
X0151853Y0052525D01*
X0152011Y0052509D01*
X0152168Y0052489D01*
X0152324Y0052465D01*
X0152480Y0052437D01*
X0152635Y0052406D01*
X0152790Y0052370D01*
X0152943Y0052331D01*
X0153095Y0052288D01*
X0153246Y0052241D01*
X0153396Y0052190D01*
X0153545Y0052135D01*
X0153692Y0052077D01*
X0153838Y0052015D01*
X0153982Y0051950D01*
X0154124Y0051880D01*
X0154265Y0051808D01*
X0154404Y0051731D01*
X0154540Y0051652D01*
X0154675Y0051568D01*
X0154808Y0051482D01*
X0154938Y0051392D01*
X0155066Y0051299D01*
X0155192Y0051203D01*
X0155315Y0051103D01*
X0155436Y0051001D01*
X0155554Y0050896D01*
X0155669Y0050787D01*
X0155782Y0050676D01*
X0155892Y0050562D01*
X0155999Y0050445D01*
X0156103Y0050326D01*
X0156204Y0050204D01*
X0156301Y0050079D01*
X0156396Y0049952D01*
X0156487Y0049823D01*
X0156576Y0049692D01*
X0156660Y0049558D01*
X0156742Y0049422D01*
X0156820Y0049285D01*
X0156894Y0049145D01*
X0156965Y0049003D01*
X0157033Y0048860D01*
X0157097Y0048715D01*
X0157157Y0048569D01*
X0157213Y0048421D01*
X0157266Y0048272D01*
X0157315Y0048121D01*
X0157360Y0047969D01*
X0157401Y0047816D01*
X0157439Y0047663D01*
X0157472Y0047508D01*
X0157502Y0047352D01*
X0157528Y0047196D01*
X0157549Y0047039D01*
X0157567Y0046882D01*
X0157581Y0046724D01*
X0157591Y0046566D01*
X0157597Y0046408D01*
X0157599Y0046250D01*
X0157597Y0046092D01*
X0157591Y0045934D01*
X0157581Y0045776D01*
X0157567Y0045618D01*
X0157549Y0045461D01*
X0157528Y0045304D01*
X0157502Y0045148D01*
X0157472Y0044992D01*
X0157439Y0044837D01*
X0157401Y0044684D01*
X0157360Y0044531D01*
X0157315Y0044379D01*
X0157266Y0044228D01*
X0157213Y0044079D01*
X0157157Y0043931D01*
X0157097Y0043785D01*
X0157033Y0043640D01*
X0156965Y0043497D01*
X0156894Y0043355D01*
X0156820Y0043215D01*
X0156742Y0043078D01*
X0156660Y0042942D01*
X0156576Y0042808D01*
X0156487Y0042677D01*
X0156396Y0042548D01*
X0156301Y0042421D01*
X0156204Y0042296D01*
X0156103Y0042174D01*
X0155999Y0042055D01*
X0155892Y0041938D01*
X0155782Y0041824D01*
X0155669Y0041713D01*
X0155554Y0041604D01*
X0155436Y0041499D01*
X0155315Y0041397D01*
X0155192Y0041297D01*
X0155066Y0041201D01*
X0154938Y0041108D01*
X0154808Y0041018D01*
X0154675Y0040932D01*
X0154540Y0040848D01*
X0154404Y0040769D01*
X0154265Y0040692D01*
X0154124Y0040620D01*
X0153982Y0040550D01*
X0153838Y0040485D01*
X0153692Y0040423D01*
X0153545Y0040365D01*
X0153396Y0040310D01*
X0153246Y0040259D01*
X0153095Y0040212D01*
X0152943Y0040169D01*
X0152790Y0040130D01*
X0152635Y0040094D01*
X0152480Y0040063D01*
X0152324Y0040035D01*
X0152168Y0040011D01*
X0152011Y0039991D01*
X0151853Y0039975D01*
X0151696Y0039963D01*
X0151537Y0039955D01*
X0151379Y0039951D01*
X0151221Y0039951D01*
X0151063Y0039955D01*
X0150904Y0039963D01*
X0150747Y0039975D01*
X0150589Y0039991D01*
X0150432Y0040011D01*
X0150276Y0040035D01*
X0150120Y0040063D01*
X0149965Y0040094D01*
X0149810Y0040130D01*
X0149657Y0040169D01*
X0149505Y0040212D01*
X0149354Y0040259D01*
X0149204Y0040310D01*
X0149055Y0040365D01*
X0148908Y0040423D01*
X0148762Y0040485D01*
X0148618Y0040550D01*
X0148476Y0040620D01*
X0148335Y0040692D01*
X0148196Y0040769D01*
X0148060Y0040848D01*
X0147925Y0040932D01*
X0147792Y0041018D01*
X0147662Y0041108D01*
X0147534Y0041201D01*
X0147408Y0041297D01*
X0147285Y0041397D01*
X0147164Y0041499D01*
X0147046Y0041604D01*
X0146931Y0041713D01*
X0146818Y0041824D01*
X0146708Y0041938D01*
X0146601Y0042055D01*
X0146497Y0042174D01*
X0146396Y0042296D01*
X0146299Y0042421D01*
X0146204Y0042548D01*
X0146113Y0042677D01*
X0146024Y0042808D01*
X0145940Y0042942D01*
X0145858Y0043078D01*
X0145780Y0043215D01*
X0145706Y0043355D01*
X0145635Y0043497D01*
X0145567Y0043640D01*
X0145503Y0043785D01*
X0145443Y0043931D01*
X0145387Y0044079D01*
X0145334Y0044228D01*
X0145285Y0044379D01*
X0145240Y0044531D01*
X0145199Y0044684D01*
X0145161Y0044837D01*
X0145128Y0044992D01*
X0145098Y0045148D01*
X0145072Y0045304D01*
X0145051Y0045461D01*
X0145033Y0045618D01*
X0145019Y0045776D01*
X0145009Y0045934D01*
X0145003Y0046092D01*
X0145001Y0046250D01*
X0180001Y0046250D02*
X0180003Y0046408D01*
X0180009Y0046566D01*
X0180019Y0046724D01*
X0180033Y0046882D01*
X0180051Y0047039D01*
X0180072Y0047196D01*
X0180098Y0047352D01*
X0180128Y0047508D01*
X0180161Y0047663D01*
X0180199Y0047816D01*
X0180240Y0047969D01*
X0180285Y0048121D01*
X0180334Y0048272D01*
X0180387Y0048421D01*
X0180443Y0048569D01*
X0180503Y0048715D01*
X0180567Y0048860D01*
X0180635Y0049003D01*
X0180706Y0049145D01*
X0180780Y0049285D01*
X0180858Y0049422D01*
X0180940Y0049558D01*
X0181024Y0049692D01*
X0181113Y0049823D01*
X0181204Y0049952D01*
X0181299Y0050079D01*
X0181396Y0050204D01*
X0181497Y0050326D01*
X0181601Y0050445D01*
X0181708Y0050562D01*
X0181818Y0050676D01*
X0181931Y0050787D01*
X0182046Y0050896D01*
X0182164Y0051001D01*
X0182285Y0051103D01*
X0182408Y0051203D01*
X0182534Y0051299D01*
X0182662Y0051392D01*
X0182792Y0051482D01*
X0182925Y0051568D01*
X0183060Y0051652D01*
X0183196Y0051731D01*
X0183335Y0051808D01*
X0183476Y0051880D01*
X0183618Y0051950D01*
X0183762Y0052015D01*
X0183908Y0052077D01*
X0184055Y0052135D01*
X0184204Y0052190D01*
X0184354Y0052241D01*
X0184505Y0052288D01*
X0184657Y0052331D01*
X0184810Y0052370D01*
X0184965Y0052406D01*
X0185120Y0052437D01*
X0185276Y0052465D01*
X0185432Y0052489D01*
X0185589Y0052509D01*
X0185747Y0052525D01*
X0185904Y0052537D01*
X0186063Y0052545D01*
X0186221Y0052549D01*
X0186379Y0052549D01*
X0186537Y0052545D01*
X0186696Y0052537D01*
X0186853Y0052525D01*
X0187011Y0052509D01*
X0187168Y0052489D01*
X0187324Y0052465D01*
X0187480Y0052437D01*
X0187635Y0052406D01*
X0187790Y0052370D01*
X0187943Y0052331D01*
X0188095Y0052288D01*
X0188246Y0052241D01*
X0188396Y0052190D01*
X0188545Y0052135D01*
X0188692Y0052077D01*
X0188838Y0052015D01*
X0188982Y0051950D01*
X0189124Y0051880D01*
X0189265Y0051808D01*
X0189404Y0051731D01*
X0189540Y0051652D01*
X0189675Y0051568D01*
X0189808Y0051482D01*
X0189938Y0051392D01*
X0190066Y0051299D01*
X0190192Y0051203D01*
X0190315Y0051103D01*
X0190436Y0051001D01*
X0190554Y0050896D01*
X0190669Y0050787D01*
X0190782Y0050676D01*
X0190892Y0050562D01*
X0190999Y0050445D01*
X0191103Y0050326D01*
X0191204Y0050204D01*
X0191301Y0050079D01*
X0191396Y0049952D01*
X0191487Y0049823D01*
X0191576Y0049692D01*
X0191660Y0049558D01*
X0191742Y0049422D01*
X0191820Y0049285D01*
X0191894Y0049145D01*
X0191965Y0049003D01*
X0192033Y0048860D01*
X0192097Y0048715D01*
X0192157Y0048569D01*
X0192213Y0048421D01*
X0192266Y0048272D01*
X0192315Y0048121D01*
X0192360Y0047969D01*
X0192401Y0047816D01*
X0192439Y0047663D01*
X0192472Y0047508D01*
X0192502Y0047352D01*
X0192528Y0047196D01*
X0192549Y0047039D01*
X0192567Y0046882D01*
X0192581Y0046724D01*
X0192591Y0046566D01*
X0192597Y0046408D01*
X0192599Y0046250D01*
X0192597Y0046092D01*
X0192591Y0045934D01*
X0192581Y0045776D01*
X0192567Y0045618D01*
X0192549Y0045461D01*
X0192528Y0045304D01*
X0192502Y0045148D01*
X0192472Y0044992D01*
X0192439Y0044837D01*
X0192401Y0044684D01*
X0192360Y0044531D01*
X0192315Y0044379D01*
X0192266Y0044228D01*
X0192213Y0044079D01*
X0192157Y0043931D01*
X0192097Y0043785D01*
X0192033Y0043640D01*
X0191965Y0043497D01*
X0191894Y0043355D01*
X0191820Y0043215D01*
X0191742Y0043078D01*
X0191660Y0042942D01*
X0191576Y0042808D01*
X0191487Y0042677D01*
X0191396Y0042548D01*
X0191301Y0042421D01*
X0191204Y0042296D01*
X0191103Y0042174D01*
X0190999Y0042055D01*
X0190892Y0041938D01*
X0190782Y0041824D01*
X0190669Y0041713D01*
X0190554Y0041604D01*
X0190436Y0041499D01*
X0190315Y0041397D01*
X0190192Y0041297D01*
X0190066Y0041201D01*
X0189938Y0041108D01*
X0189808Y0041018D01*
X0189675Y0040932D01*
X0189540Y0040848D01*
X0189404Y0040769D01*
X0189265Y0040692D01*
X0189124Y0040620D01*
X0188982Y0040550D01*
X0188838Y0040485D01*
X0188692Y0040423D01*
X0188545Y0040365D01*
X0188396Y0040310D01*
X0188246Y0040259D01*
X0188095Y0040212D01*
X0187943Y0040169D01*
X0187790Y0040130D01*
X0187635Y0040094D01*
X0187480Y0040063D01*
X0187324Y0040035D01*
X0187168Y0040011D01*
X0187011Y0039991D01*
X0186853Y0039975D01*
X0186696Y0039963D01*
X0186537Y0039955D01*
X0186379Y0039951D01*
X0186221Y0039951D01*
X0186063Y0039955D01*
X0185904Y0039963D01*
X0185747Y0039975D01*
X0185589Y0039991D01*
X0185432Y0040011D01*
X0185276Y0040035D01*
X0185120Y0040063D01*
X0184965Y0040094D01*
X0184810Y0040130D01*
X0184657Y0040169D01*
X0184505Y0040212D01*
X0184354Y0040259D01*
X0184204Y0040310D01*
X0184055Y0040365D01*
X0183908Y0040423D01*
X0183762Y0040485D01*
X0183618Y0040550D01*
X0183476Y0040620D01*
X0183335Y0040692D01*
X0183196Y0040769D01*
X0183060Y0040848D01*
X0182925Y0040932D01*
X0182792Y0041018D01*
X0182662Y0041108D01*
X0182534Y0041201D01*
X0182408Y0041297D01*
X0182285Y0041397D01*
X0182164Y0041499D01*
X0182046Y0041604D01*
X0181931Y0041713D01*
X0181818Y0041824D01*
X0181708Y0041938D01*
X0181601Y0042055D01*
X0181497Y0042174D01*
X0181396Y0042296D01*
X0181299Y0042421D01*
X0181204Y0042548D01*
X0181113Y0042677D01*
X0181024Y0042808D01*
X0180940Y0042942D01*
X0180858Y0043078D01*
X0180780Y0043215D01*
X0180706Y0043355D01*
X0180635Y0043497D01*
X0180567Y0043640D01*
X0180503Y0043785D01*
X0180443Y0043931D01*
X0180387Y0044079D01*
X0180334Y0044228D01*
X0180285Y0044379D01*
X0180240Y0044531D01*
X0180199Y0044684D01*
X0180161Y0044837D01*
X0180128Y0044992D01*
X0180098Y0045148D01*
X0180072Y0045304D01*
X0180051Y0045461D01*
X0180033Y0045618D01*
X0180019Y0045776D01*
X0180009Y0045934D01*
X0180003Y0046092D01*
X0180001Y0046250D01*
X0220001Y0046250D02*
X0220003Y0046408D01*
X0220009Y0046566D01*
X0220019Y0046724D01*
X0220033Y0046882D01*
X0220051Y0047039D01*
X0220072Y0047196D01*
X0220098Y0047352D01*
X0220128Y0047508D01*
X0220161Y0047663D01*
X0220199Y0047816D01*
X0220240Y0047969D01*
X0220285Y0048121D01*
X0220334Y0048272D01*
X0220387Y0048421D01*
X0220443Y0048569D01*
X0220503Y0048715D01*
X0220567Y0048860D01*
X0220635Y0049003D01*
X0220706Y0049145D01*
X0220780Y0049285D01*
X0220858Y0049422D01*
X0220940Y0049558D01*
X0221024Y0049692D01*
X0221113Y0049823D01*
X0221204Y0049952D01*
X0221299Y0050079D01*
X0221396Y0050204D01*
X0221497Y0050326D01*
X0221601Y0050445D01*
X0221708Y0050562D01*
X0221818Y0050676D01*
X0221931Y0050787D01*
X0222046Y0050896D01*
X0222164Y0051001D01*
X0222285Y0051103D01*
X0222408Y0051203D01*
X0222534Y0051299D01*
X0222662Y0051392D01*
X0222792Y0051482D01*
X0222925Y0051568D01*
X0223060Y0051652D01*
X0223196Y0051731D01*
X0223335Y0051808D01*
X0223476Y0051880D01*
X0223618Y0051950D01*
X0223762Y0052015D01*
X0223908Y0052077D01*
X0224055Y0052135D01*
X0224204Y0052190D01*
X0224354Y0052241D01*
X0224505Y0052288D01*
X0224657Y0052331D01*
X0224810Y0052370D01*
X0224965Y0052406D01*
X0225120Y0052437D01*
X0225276Y0052465D01*
X0225432Y0052489D01*
X0225589Y0052509D01*
X0225747Y0052525D01*
X0225904Y0052537D01*
X0226063Y0052545D01*
X0226221Y0052549D01*
X0226379Y0052549D01*
X0226537Y0052545D01*
X0226696Y0052537D01*
X0226853Y0052525D01*
X0227011Y0052509D01*
X0227168Y0052489D01*
X0227324Y0052465D01*
X0227480Y0052437D01*
X0227635Y0052406D01*
X0227790Y0052370D01*
X0227943Y0052331D01*
X0228095Y0052288D01*
X0228246Y0052241D01*
X0228396Y0052190D01*
X0228545Y0052135D01*
X0228692Y0052077D01*
X0228838Y0052015D01*
X0228982Y0051950D01*
X0229124Y0051880D01*
X0229265Y0051808D01*
X0229404Y0051731D01*
X0229540Y0051652D01*
X0229675Y0051568D01*
X0229808Y0051482D01*
X0229938Y0051392D01*
X0230066Y0051299D01*
X0230192Y0051203D01*
X0230315Y0051103D01*
X0230436Y0051001D01*
X0230554Y0050896D01*
X0230669Y0050787D01*
X0230782Y0050676D01*
X0230892Y0050562D01*
X0230999Y0050445D01*
X0231103Y0050326D01*
X0231204Y0050204D01*
X0231301Y0050079D01*
X0231396Y0049952D01*
X0231487Y0049823D01*
X0231576Y0049692D01*
X0231660Y0049558D01*
X0231742Y0049422D01*
X0231820Y0049285D01*
X0231894Y0049145D01*
X0231965Y0049003D01*
X0232033Y0048860D01*
X0232097Y0048715D01*
X0232157Y0048569D01*
X0232213Y0048421D01*
X0232266Y0048272D01*
X0232315Y0048121D01*
X0232360Y0047969D01*
X0232401Y0047816D01*
X0232439Y0047663D01*
X0232472Y0047508D01*
X0232502Y0047352D01*
X0232528Y0047196D01*
X0232549Y0047039D01*
X0232567Y0046882D01*
X0232581Y0046724D01*
X0232591Y0046566D01*
X0232597Y0046408D01*
X0232599Y0046250D01*
X0232597Y0046092D01*
X0232591Y0045934D01*
X0232581Y0045776D01*
X0232567Y0045618D01*
X0232549Y0045461D01*
X0232528Y0045304D01*
X0232502Y0045148D01*
X0232472Y0044992D01*
X0232439Y0044837D01*
X0232401Y0044684D01*
X0232360Y0044531D01*
X0232315Y0044379D01*
X0232266Y0044228D01*
X0232213Y0044079D01*
X0232157Y0043931D01*
X0232097Y0043785D01*
X0232033Y0043640D01*
X0231965Y0043497D01*
X0231894Y0043355D01*
X0231820Y0043215D01*
X0231742Y0043078D01*
X0231660Y0042942D01*
X0231576Y0042808D01*
X0231487Y0042677D01*
X0231396Y0042548D01*
X0231301Y0042421D01*
X0231204Y0042296D01*
X0231103Y0042174D01*
X0230999Y0042055D01*
X0230892Y0041938D01*
X0230782Y0041824D01*
X0230669Y0041713D01*
X0230554Y0041604D01*
X0230436Y0041499D01*
X0230315Y0041397D01*
X0230192Y0041297D01*
X0230066Y0041201D01*
X0229938Y0041108D01*
X0229808Y0041018D01*
X0229675Y0040932D01*
X0229540Y0040848D01*
X0229404Y0040769D01*
X0229265Y0040692D01*
X0229124Y0040620D01*
X0228982Y0040550D01*
X0228838Y0040485D01*
X0228692Y0040423D01*
X0228545Y0040365D01*
X0228396Y0040310D01*
X0228246Y0040259D01*
X0228095Y0040212D01*
X0227943Y0040169D01*
X0227790Y0040130D01*
X0227635Y0040094D01*
X0227480Y0040063D01*
X0227324Y0040035D01*
X0227168Y0040011D01*
X0227011Y0039991D01*
X0226853Y0039975D01*
X0226696Y0039963D01*
X0226537Y0039955D01*
X0226379Y0039951D01*
X0226221Y0039951D01*
X0226063Y0039955D01*
X0225904Y0039963D01*
X0225747Y0039975D01*
X0225589Y0039991D01*
X0225432Y0040011D01*
X0225276Y0040035D01*
X0225120Y0040063D01*
X0224965Y0040094D01*
X0224810Y0040130D01*
X0224657Y0040169D01*
X0224505Y0040212D01*
X0224354Y0040259D01*
X0224204Y0040310D01*
X0224055Y0040365D01*
X0223908Y0040423D01*
X0223762Y0040485D01*
X0223618Y0040550D01*
X0223476Y0040620D01*
X0223335Y0040692D01*
X0223196Y0040769D01*
X0223060Y0040848D01*
X0222925Y0040932D01*
X0222792Y0041018D01*
X0222662Y0041108D01*
X0222534Y0041201D01*
X0222408Y0041297D01*
X0222285Y0041397D01*
X0222164Y0041499D01*
X0222046Y0041604D01*
X0221931Y0041713D01*
X0221818Y0041824D01*
X0221708Y0041938D01*
X0221601Y0042055D01*
X0221497Y0042174D01*
X0221396Y0042296D01*
X0221299Y0042421D01*
X0221204Y0042548D01*
X0221113Y0042677D01*
X0221024Y0042808D01*
X0220940Y0042942D01*
X0220858Y0043078D01*
X0220780Y0043215D01*
X0220706Y0043355D01*
X0220635Y0043497D01*
X0220567Y0043640D01*
X0220503Y0043785D01*
X0220443Y0043931D01*
X0220387Y0044079D01*
X0220334Y0044228D01*
X0220285Y0044379D01*
X0220240Y0044531D01*
X0220199Y0044684D01*
X0220161Y0044837D01*
X0220128Y0044992D01*
X0220098Y0045148D01*
X0220072Y0045304D01*
X0220051Y0045461D01*
X0220033Y0045618D01*
X0220019Y0045776D01*
X0220009Y0045934D01*
X0220003Y0046092D01*
X0220001Y0046250D01*
X0255001Y0046250D02*
X0255003Y0046408D01*
X0255009Y0046566D01*
X0255019Y0046724D01*
X0255033Y0046882D01*
X0255051Y0047039D01*
X0255072Y0047196D01*
X0255098Y0047352D01*
X0255128Y0047508D01*
X0255161Y0047663D01*
X0255199Y0047816D01*
X0255240Y0047969D01*
X0255285Y0048121D01*
X0255334Y0048272D01*
X0255387Y0048421D01*
X0255443Y0048569D01*
X0255503Y0048715D01*
X0255567Y0048860D01*
X0255635Y0049003D01*
X0255706Y0049145D01*
X0255780Y0049285D01*
X0255858Y0049422D01*
X0255940Y0049558D01*
X0256024Y0049692D01*
X0256113Y0049823D01*
X0256204Y0049952D01*
X0256299Y0050079D01*
X0256396Y0050204D01*
X0256497Y0050326D01*
X0256601Y0050445D01*
X0256708Y0050562D01*
X0256818Y0050676D01*
X0256931Y0050787D01*
X0257046Y0050896D01*
X0257164Y0051001D01*
X0257285Y0051103D01*
X0257408Y0051203D01*
X0257534Y0051299D01*
X0257662Y0051392D01*
X0257792Y0051482D01*
X0257925Y0051568D01*
X0258060Y0051652D01*
X0258196Y0051731D01*
X0258335Y0051808D01*
X0258476Y0051880D01*
X0258618Y0051950D01*
X0258762Y0052015D01*
X0258908Y0052077D01*
X0259055Y0052135D01*
X0259204Y0052190D01*
X0259354Y0052241D01*
X0259505Y0052288D01*
X0259657Y0052331D01*
X0259810Y0052370D01*
X0259965Y0052406D01*
X0260120Y0052437D01*
X0260276Y0052465D01*
X0260432Y0052489D01*
X0260589Y0052509D01*
X0260747Y0052525D01*
X0260904Y0052537D01*
X0261063Y0052545D01*
X0261221Y0052549D01*
X0261379Y0052549D01*
X0261537Y0052545D01*
X0261696Y0052537D01*
X0261853Y0052525D01*
X0262011Y0052509D01*
X0262168Y0052489D01*
X0262324Y0052465D01*
X0262480Y0052437D01*
X0262635Y0052406D01*
X0262790Y0052370D01*
X0262943Y0052331D01*
X0263095Y0052288D01*
X0263246Y0052241D01*
X0263396Y0052190D01*
X0263545Y0052135D01*
X0263692Y0052077D01*
X0263838Y0052015D01*
X0263982Y0051950D01*
X0264124Y0051880D01*
X0264265Y0051808D01*
X0264404Y0051731D01*
X0264540Y0051652D01*
X0264675Y0051568D01*
X0264808Y0051482D01*
X0264938Y0051392D01*
X0265066Y0051299D01*
X0265192Y0051203D01*
X0265315Y0051103D01*
X0265436Y0051001D01*
X0265554Y0050896D01*
X0265669Y0050787D01*
X0265782Y0050676D01*
X0265892Y0050562D01*
X0265999Y0050445D01*
X0266103Y0050326D01*
X0266204Y0050204D01*
X0266301Y0050079D01*
X0266396Y0049952D01*
X0266487Y0049823D01*
X0266576Y0049692D01*
X0266660Y0049558D01*
X0266742Y0049422D01*
X0266820Y0049285D01*
X0266894Y0049145D01*
X0266965Y0049003D01*
X0267033Y0048860D01*
X0267097Y0048715D01*
X0267157Y0048569D01*
X0267213Y0048421D01*
X0267266Y0048272D01*
X0267315Y0048121D01*
X0267360Y0047969D01*
X0267401Y0047816D01*
X0267439Y0047663D01*
X0267472Y0047508D01*
X0267502Y0047352D01*
X0267528Y0047196D01*
X0267549Y0047039D01*
X0267567Y0046882D01*
X0267581Y0046724D01*
X0267591Y0046566D01*
X0267597Y0046408D01*
X0267599Y0046250D01*
X0267597Y0046092D01*
X0267591Y0045934D01*
X0267581Y0045776D01*
X0267567Y0045618D01*
X0267549Y0045461D01*
X0267528Y0045304D01*
X0267502Y0045148D01*
X0267472Y0044992D01*
X0267439Y0044837D01*
X0267401Y0044684D01*
X0267360Y0044531D01*
X0267315Y0044379D01*
X0267266Y0044228D01*
X0267213Y0044079D01*
X0267157Y0043931D01*
X0267097Y0043785D01*
X0267033Y0043640D01*
X0266965Y0043497D01*
X0266894Y0043355D01*
X0266820Y0043215D01*
X0266742Y0043078D01*
X0266660Y0042942D01*
X0266576Y0042808D01*
X0266487Y0042677D01*
X0266396Y0042548D01*
X0266301Y0042421D01*
X0266204Y0042296D01*
X0266103Y0042174D01*
X0265999Y0042055D01*
X0265892Y0041938D01*
X0265782Y0041824D01*
X0265669Y0041713D01*
X0265554Y0041604D01*
X0265436Y0041499D01*
X0265315Y0041397D01*
X0265192Y0041297D01*
X0265066Y0041201D01*
X0264938Y0041108D01*
X0264808Y0041018D01*
X0264675Y0040932D01*
X0264540Y0040848D01*
X0264404Y0040769D01*
X0264265Y0040692D01*
X0264124Y0040620D01*
X0263982Y0040550D01*
X0263838Y0040485D01*
X0263692Y0040423D01*
X0263545Y0040365D01*
X0263396Y0040310D01*
X0263246Y0040259D01*
X0263095Y0040212D01*
X0262943Y0040169D01*
X0262790Y0040130D01*
X0262635Y0040094D01*
X0262480Y0040063D01*
X0262324Y0040035D01*
X0262168Y0040011D01*
X0262011Y0039991D01*
X0261853Y0039975D01*
X0261696Y0039963D01*
X0261537Y0039955D01*
X0261379Y0039951D01*
X0261221Y0039951D01*
X0261063Y0039955D01*
X0260904Y0039963D01*
X0260747Y0039975D01*
X0260589Y0039991D01*
X0260432Y0040011D01*
X0260276Y0040035D01*
X0260120Y0040063D01*
X0259965Y0040094D01*
X0259810Y0040130D01*
X0259657Y0040169D01*
X0259505Y0040212D01*
X0259354Y0040259D01*
X0259204Y0040310D01*
X0259055Y0040365D01*
X0258908Y0040423D01*
X0258762Y0040485D01*
X0258618Y0040550D01*
X0258476Y0040620D01*
X0258335Y0040692D01*
X0258196Y0040769D01*
X0258060Y0040848D01*
X0257925Y0040932D01*
X0257792Y0041018D01*
X0257662Y0041108D01*
X0257534Y0041201D01*
X0257408Y0041297D01*
X0257285Y0041397D01*
X0257164Y0041499D01*
X0257046Y0041604D01*
X0256931Y0041713D01*
X0256818Y0041824D01*
X0256708Y0041938D01*
X0256601Y0042055D01*
X0256497Y0042174D01*
X0256396Y0042296D01*
X0256299Y0042421D01*
X0256204Y0042548D01*
X0256113Y0042677D01*
X0256024Y0042808D01*
X0255940Y0042942D01*
X0255858Y0043078D01*
X0255780Y0043215D01*
X0255706Y0043355D01*
X0255635Y0043497D01*
X0255567Y0043640D01*
X0255503Y0043785D01*
X0255443Y0043931D01*
X0255387Y0044079D01*
X0255334Y0044228D01*
X0255285Y0044379D01*
X0255240Y0044531D01*
X0255199Y0044684D01*
X0255161Y0044837D01*
X0255128Y0044992D01*
X0255098Y0045148D01*
X0255072Y0045304D01*
X0255051Y0045461D01*
X0255033Y0045618D01*
X0255019Y0045776D01*
X0255009Y0045934D01*
X0255003Y0046092D01*
X0255001Y0046250D01*
X0295001Y0046250D02*
X0295003Y0046408D01*
X0295009Y0046566D01*
X0295019Y0046724D01*
X0295033Y0046882D01*
X0295051Y0047039D01*
X0295072Y0047196D01*
X0295098Y0047352D01*
X0295128Y0047508D01*
X0295161Y0047663D01*
X0295199Y0047816D01*
X0295240Y0047969D01*
X0295285Y0048121D01*
X0295334Y0048272D01*
X0295387Y0048421D01*
X0295443Y0048569D01*
X0295503Y0048715D01*
X0295567Y0048860D01*
X0295635Y0049003D01*
X0295706Y0049145D01*
X0295780Y0049285D01*
X0295858Y0049422D01*
X0295940Y0049558D01*
X0296024Y0049692D01*
X0296113Y0049823D01*
X0296204Y0049952D01*
X0296299Y0050079D01*
X0296396Y0050204D01*
X0296497Y0050326D01*
X0296601Y0050445D01*
X0296708Y0050562D01*
X0296818Y0050676D01*
X0296931Y0050787D01*
X0297046Y0050896D01*
X0297164Y0051001D01*
X0297285Y0051103D01*
X0297408Y0051203D01*
X0297534Y0051299D01*
X0297662Y0051392D01*
X0297792Y0051482D01*
X0297925Y0051568D01*
X0298060Y0051652D01*
X0298196Y0051731D01*
X0298335Y0051808D01*
X0298476Y0051880D01*
X0298618Y0051950D01*
X0298762Y0052015D01*
X0298908Y0052077D01*
X0299055Y0052135D01*
X0299204Y0052190D01*
X0299354Y0052241D01*
X0299505Y0052288D01*
X0299657Y0052331D01*
X0299810Y0052370D01*
X0299965Y0052406D01*
X0300120Y0052437D01*
X0300276Y0052465D01*
X0300432Y0052489D01*
X0300589Y0052509D01*
X0300747Y0052525D01*
X0300904Y0052537D01*
X0301063Y0052545D01*
X0301221Y0052549D01*
X0301379Y0052549D01*
X0301537Y0052545D01*
X0301696Y0052537D01*
X0301853Y0052525D01*
X0302011Y0052509D01*
X0302168Y0052489D01*
X0302324Y0052465D01*
X0302480Y0052437D01*
X0302635Y0052406D01*
X0302790Y0052370D01*
X0302943Y0052331D01*
X0303095Y0052288D01*
X0303246Y0052241D01*
X0303396Y0052190D01*
X0303545Y0052135D01*
X0303692Y0052077D01*
X0303838Y0052015D01*
X0303982Y0051950D01*
X0304124Y0051880D01*
X0304265Y0051808D01*
X0304404Y0051731D01*
X0304540Y0051652D01*
X0304675Y0051568D01*
X0304808Y0051482D01*
X0304938Y0051392D01*
X0305066Y0051299D01*
X0305192Y0051203D01*
X0305315Y0051103D01*
X0305436Y0051001D01*
X0305554Y0050896D01*
X0305669Y0050787D01*
X0305782Y0050676D01*
X0305892Y0050562D01*
X0305999Y0050445D01*
X0306103Y0050326D01*
X0306204Y0050204D01*
X0306301Y0050079D01*
X0306396Y0049952D01*
X0306487Y0049823D01*
X0306576Y0049692D01*
X0306660Y0049558D01*
X0306742Y0049422D01*
X0306820Y0049285D01*
X0306894Y0049145D01*
X0306965Y0049003D01*
X0307033Y0048860D01*
X0307097Y0048715D01*
X0307157Y0048569D01*
X0307213Y0048421D01*
X0307266Y0048272D01*
X0307315Y0048121D01*
X0307360Y0047969D01*
X0307401Y0047816D01*
X0307439Y0047663D01*
X0307472Y0047508D01*
X0307502Y0047352D01*
X0307528Y0047196D01*
X0307549Y0047039D01*
X0307567Y0046882D01*
X0307581Y0046724D01*
X0307591Y0046566D01*
X0307597Y0046408D01*
X0307599Y0046250D01*
X0307597Y0046092D01*
X0307591Y0045934D01*
X0307581Y0045776D01*
X0307567Y0045618D01*
X0307549Y0045461D01*
X0307528Y0045304D01*
X0307502Y0045148D01*
X0307472Y0044992D01*
X0307439Y0044837D01*
X0307401Y0044684D01*
X0307360Y0044531D01*
X0307315Y0044379D01*
X0307266Y0044228D01*
X0307213Y0044079D01*
X0307157Y0043931D01*
X0307097Y0043785D01*
X0307033Y0043640D01*
X0306965Y0043497D01*
X0306894Y0043355D01*
X0306820Y0043215D01*
X0306742Y0043078D01*
X0306660Y0042942D01*
X0306576Y0042808D01*
X0306487Y0042677D01*
X0306396Y0042548D01*
X0306301Y0042421D01*
X0306204Y0042296D01*
X0306103Y0042174D01*
X0305999Y0042055D01*
X0305892Y0041938D01*
X0305782Y0041824D01*
X0305669Y0041713D01*
X0305554Y0041604D01*
X0305436Y0041499D01*
X0305315Y0041397D01*
X0305192Y0041297D01*
X0305066Y0041201D01*
X0304938Y0041108D01*
X0304808Y0041018D01*
X0304675Y0040932D01*
X0304540Y0040848D01*
X0304404Y0040769D01*
X0304265Y0040692D01*
X0304124Y0040620D01*
X0303982Y0040550D01*
X0303838Y0040485D01*
X0303692Y0040423D01*
X0303545Y0040365D01*
X0303396Y0040310D01*
X0303246Y0040259D01*
X0303095Y0040212D01*
X0302943Y0040169D01*
X0302790Y0040130D01*
X0302635Y0040094D01*
X0302480Y0040063D01*
X0302324Y0040035D01*
X0302168Y0040011D01*
X0302011Y0039991D01*
X0301853Y0039975D01*
X0301696Y0039963D01*
X0301537Y0039955D01*
X0301379Y0039951D01*
X0301221Y0039951D01*
X0301063Y0039955D01*
X0300904Y0039963D01*
X0300747Y0039975D01*
X0300589Y0039991D01*
X0300432Y0040011D01*
X0300276Y0040035D01*
X0300120Y0040063D01*
X0299965Y0040094D01*
X0299810Y0040130D01*
X0299657Y0040169D01*
X0299505Y0040212D01*
X0299354Y0040259D01*
X0299204Y0040310D01*
X0299055Y0040365D01*
X0298908Y0040423D01*
X0298762Y0040485D01*
X0298618Y0040550D01*
X0298476Y0040620D01*
X0298335Y0040692D01*
X0298196Y0040769D01*
X0298060Y0040848D01*
X0297925Y0040932D01*
X0297792Y0041018D01*
X0297662Y0041108D01*
X0297534Y0041201D01*
X0297408Y0041297D01*
X0297285Y0041397D01*
X0297164Y0041499D01*
X0297046Y0041604D01*
X0296931Y0041713D01*
X0296818Y0041824D01*
X0296708Y0041938D01*
X0296601Y0042055D01*
X0296497Y0042174D01*
X0296396Y0042296D01*
X0296299Y0042421D01*
X0296204Y0042548D01*
X0296113Y0042677D01*
X0296024Y0042808D01*
X0295940Y0042942D01*
X0295858Y0043078D01*
X0295780Y0043215D01*
X0295706Y0043355D01*
X0295635Y0043497D01*
X0295567Y0043640D01*
X0295503Y0043785D01*
X0295443Y0043931D01*
X0295387Y0044079D01*
X0295334Y0044228D01*
X0295285Y0044379D01*
X0295240Y0044531D01*
X0295199Y0044684D01*
X0295161Y0044837D01*
X0295128Y0044992D01*
X0295098Y0045148D01*
X0295072Y0045304D01*
X0295051Y0045461D01*
X0295033Y0045618D01*
X0295019Y0045776D01*
X0295009Y0045934D01*
X0295003Y0046092D01*
X0295001Y0046250D01*
X0354410Y0071250D02*
X0354412Y0071419D01*
X0354418Y0071588D01*
X0354429Y0071757D01*
X0354443Y0071925D01*
X0354462Y0072093D01*
X0354485Y0072261D01*
X0354511Y0072428D01*
X0354542Y0072594D01*
X0354577Y0072760D01*
X0354616Y0072924D01*
X0354660Y0073088D01*
X0354707Y0073250D01*
X0354758Y0073411D01*
X0354813Y0073571D01*
X0354872Y0073730D01*
X0354934Y0073887D01*
X0355001Y0074042D01*
X0355072Y0074196D01*
X0355146Y0074348D01*
X0355224Y0074498D01*
X0355305Y0074646D01*
X0355390Y0074792D01*
X0355479Y0074936D01*
X0355571Y0075078D01*
X0355667Y0075217D01*
X0355766Y0075354D01*
X0355868Y0075489D01*
X0355974Y0075621D01*
X0356083Y0075750D01*
X0356195Y0075877D01*
X0356310Y0076001D01*
X0356428Y0076122D01*
X0356549Y0076240D01*
X0356673Y0076355D01*
X0356800Y0076467D01*
X0356929Y0076576D01*
X0357061Y0076682D01*
X0357196Y0076784D01*
X0357333Y0076883D01*
X0357472Y0076979D01*
X0357614Y0077071D01*
X0357758Y0077160D01*
X0357904Y0077245D01*
X0358052Y0077326D01*
X0358202Y0077404D01*
X0358354Y0077478D01*
X0358508Y0077549D01*
X0358663Y0077616D01*
X0358820Y0077678D01*
X0358979Y0077737D01*
X0359139Y0077792D01*
X0359300Y0077843D01*
X0359462Y0077890D01*
X0359626Y0077934D01*
X0359790Y0077973D01*
X0359956Y0078008D01*
X0360122Y0078039D01*
X0360289Y0078065D01*
X0360457Y0078088D01*
X0360625Y0078107D01*
X0360793Y0078121D01*
X0360962Y0078132D01*
X0361131Y0078138D01*
X0361300Y0078140D01*
X0361469Y0078138D01*
X0361638Y0078132D01*
X0361807Y0078121D01*
X0361975Y0078107D01*
X0362143Y0078088D01*
X0362311Y0078065D01*
X0362478Y0078039D01*
X0362644Y0078008D01*
X0362810Y0077973D01*
X0362974Y0077934D01*
X0363138Y0077890D01*
X0363300Y0077843D01*
X0363461Y0077792D01*
X0363621Y0077737D01*
X0363780Y0077678D01*
X0363937Y0077616D01*
X0364092Y0077549D01*
X0364246Y0077478D01*
X0364398Y0077404D01*
X0364548Y0077326D01*
X0364696Y0077245D01*
X0364842Y0077160D01*
X0364986Y0077071D01*
X0365128Y0076979D01*
X0365267Y0076883D01*
X0365404Y0076784D01*
X0365539Y0076682D01*
X0365671Y0076576D01*
X0365800Y0076467D01*
X0365927Y0076355D01*
X0366051Y0076240D01*
X0366172Y0076122D01*
X0366290Y0076001D01*
X0366405Y0075877D01*
X0366517Y0075750D01*
X0366626Y0075621D01*
X0366732Y0075489D01*
X0366834Y0075354D01*
X0366933Y0075217D01*
X0367029Y0075078D01*
X0367121Y0074936D01*
X0367210Y0074792D01*
X0367295Y0074646D01*
X0367376Y0074498D01*
X0367454Y0074348D01*
X0367528Y0074196D01*
X0367599Y0074042D01*
X0367666Y0073887D01*
X0367728Y0073730D01*
X0367787Y0073571D01*
X0367842Y0073411D01*
X0367893Y0073250D01*
X0367940Y0073088D01*
X0367984Y0072924D01*
X0368023Y0072760D01*
X0368058Y0072594D01*
X0368089Y0072428D01*
X0368115Y0072261D01*
X0368138Y0072093D01*
X0368157Y0071925D01*
X0368171Y0071757D01*
X0368182Y0071588D01*
X0368188Y0071419D01*
X0368190Y0071250D01*
X0368188Y0071081D01*
X0368182Y0070912D01*
X0368171Y0070743D01*
X0368157Y0070575D01*
X0368138Y0070407D01*
X0368115Y0070239D01*
X0368089Y0070072D01*
X0368058Y0069906D01*
X0368023Y0069740D01*
X0367984Y0069576D01*
X0367940Y0069412D01*
X0367893Y0069250D01*
X0367842Y0069089D01*
X0367787Y0068929D01*
X0367728Y0068770D01*
X0367666Y0068613D01*
X0367599Y0068458D01*
X0367528Y0068304D01*
X0367454Y0068152D01*
X0367376Y0068002D01*
X0367295Y0067854D01*
X0367210Y0067708D01*
X0367121Y0067564D01*
X0367029Y0067422D01*
X0366933Y0067283D01*
X0366834Y0067146D01*
X0366732Y0067011D01*
X0366626Y0066879D01*
X0366517Y0066750D01*
X0366405Y0066623D01*
X0366290Y0066499D01*
X0366172Y0066378D01*
X0366051Y0066260D01*
X0365927Y0066145D01*
X0365800Y0066033D01*
X0365671Y0065924D01*
X0365539Y0065818D01*
X0365404Y0065716D01*
X0365267Y0065617D01*
X0365128Y0065521D01*
X0364986Y0065429D01*
X0364842Y0065340D01*
X0364696Y0065255D01*
X0364548Y0065174D01*
X0364398Y0065096D01*
X0364246Y0065022D01*
X0364092Y0064951D01*
X0363937Y0064884D01*
X0363780Y0064822D01*
X0363621Y0064763D01*
X0363461Y0064708D01*
X0363300Y0064657D01*
X0363138Y0064610D01*
X0362974Y0064566D01*
X0362810Y0064527D01*
X0362644Y0064492D01*
X0362478Y0064461D01*
X0362311Y0064435D01*
X0362143Y0064412D01*
X0361975Y0064393D01*
X0361807Y0064379D01*
X0361638Y0064368D01*
X0361469Y0064362D01*
X0361300Y0064360D01*
X0361131Y0064362D01*
X0360962Y0064368D01*
X0360793Y0064379D01*
X0360625Y0064393D01*
X0360457Y0064412D01*
X0360289Y0064435D01*
X0360122Y0064461D01*
X0359956Y0064492D01*
X0359790Y0064527D01*
X0359626Y0064566D01*
X0359462Y0064610D01*
X0359300Y0064657D01*
X0359139Y0064708D01*
X0358979Y0064763D01*
X0358820Y0064822D01*
X0358663Y0064884D01*
X0358508Y0064951D01*
X0358354Y0065022D01*
X0358202Y0065096D01*
X0358052Y0065174D01*
X0357904Y0065255D01*
X0357758Y0065340D01*
X0357614Y0065429D01*
X0357472Y0065521D01*
X0357333Y0065617D01*
X0357196Y0065716D01*
X0357061Y0065818D01*
X0356929Y0065924D01*
X0356800Y0066033D01*
X0356673Y0066145D01*
X0356549Y0066260D01*
X0356428Y0066378D01*
X0356310Y0066499D01*
X0356195Y0066623D01*
X0356083Y0066750D01*
X0355974Y0066879D01*
X0355868Y0067011D01*
X0355766Y0067146D01*
X0355667Y0067283D01*
X0355571Y0067422D01*
X0355479Y0067564D01*
X0355390Y0067708D01*
X0355305Y0067854D01*
X0355224Y0068002D01*
X0355146Y0068152D01*
X0355072Y0068304D01*
X0355001Y0068458D01*
X0354934Y0068613D01*
X0354872Y0068770D01*
X0354813Y0068929D01*
X0354758Y0069089D01*
X0354707Y0069250D01*
X0354660Y0069412D01*
X0354616Y0069576D01*
X0354577Y0069740D01*
X0354542Y0069906D01*
X0354511Y0070072D01*
X0354485Y0070239D01*
X0354462Y0070407D01*
X0354443Y0070575D01*
X0354429Y0070743D01*
X0354418Y0070912D01*
X0354412Y0071081D01*
X0354410Y0071250D01*
X0349410Y0196250D02*
X0349412Y0196419D01*
X0349418Y0196588D01*
X0349429Y0196757D01*
X0349443Y0196925D01*
X0349462Y0197093D01*
X0349485Y0197261D01*
X0349511Y0197428D01*
X0349542Y0197594D01*
X0349577Y0197760D01*
X0349616Y0197924D01*
X0349660Y0198088D01*
X0349707Y0198250D01*
X0349758Y0198411D01*
X0349813Y0198571D01*
X0349872Y0198730D01*
X0349934Y0198887D01*
X0350001Y0199042D01*
X0350072Y0199196D01*
X0350146Y0199348D01*
X0350224Y0199498D01*
X0350305Y0199646D01*
X0350390Y0199792D01*
X0350479Y0199936D01*
X0350571Y0200078D01*
X0350667Y0200217D01*
X0350766Y0200354D01*
X0350868Y0200489D01*
X0350974Y0200621D01*
X0351083Y0200750D01*
X0351195Y0200877D01*
X0351310Y0201001D01*
X0351428Y0201122D01*
X0351549Y0201240D01*
X0351673Y0201355D01*
X0351800Y0201467D01*
X0351929Y0201576D01*
X0352061Y0201682D01*
X0352196Y0201784D01*
X0352333Y0201883D01*
X0352472Y0201979D01*
X0352614Y0202071D01*
X0352758Y0202160D01*
X0352904Y0202245D01*
X0353052Y0202326D01*
X0353202Y0202404D01*
X0353354Y0202478D01*
X0353508Y0202549D01*
X0353663Y0202616D01*
X0353820Y0202678D01*
X0353979Y0202737D01*
X0354139Y0202792D01*
X0354300Y0202843D01*
X0354462Y0202890D01*
X0354626Y0202934D01*
X0354790Y0202973D01*
X0354956Y0203008D01*
X0355122Y0203039D01*
X0355289Y0203065D01*
X0355457Y0203088D01*
X0355625Y0203107D01*
X0355793Y0203121D01*
X0355962Y0203132D01*
X0356131Y0203138D01*
X0356300Y0203140D01*
X0356469Y0203138D01*
X0356638Y0203132D01*
X0356807Y0203121D01*
X0356975Y0203107D01*
X0357143Y0203088D01*
X0357311Y0203065D01*
X0357478Y0203039D01*
X0357644Y0203008D01*
X0357810Y0202973D01*
X0357974Y0202934D01*
X0358138Y0202890D01*
X0358300Y0202843D01*
X0358461Y0202792D01*
X0358621Y0202737D01*
X0358780Y0202678D01*
X0358937Y0202616D01*
X0359092Y0202549D01*
X0359246Y0202478D01*
X0359398Y0202404D01*
X0359548Y0202326D01*
X0359696Y0202245D01*
X0359842Y0202160D01*
X0359986Y0202071D01*
X0360128Y0201979D01*
X0360267Y0201883D01*
X0360404Y0201784D01*
X0360539Y0201682D01*
X0360671Y0201576D01*
X0360800Y0201467D01*
X0360927Y0201355D01*
X0361051Y0201240D01*
X0361172Y0201122D01*
X0361290Y0201001D01*
X0361405Y0200877D01*
X0361517Y0200750D01*
X0361626Y0200621D01*
X0361732Y0200489D01*
X0361834Y0200354D01*
X0361933Y0200217D01*
X0362029Y0200078D01*
X0362121Y0199936D01*
X0362210Y0199792D01*
X0362295Y0199646D01*
X0362376Y0199498D01*
X0362454Y0199348D01*
X0362528Y0199196D01*
X0362599Y0199042D01*
X0362666Y0198887D01*
X0362728Y0198730D01*
X0362787Y0198571D01*
X0362842Y0198411D01*
X0362893Y0198250D01*
X0362940Y0198088D01*
X0362984Y0197924D01*
X0363023Y0197760D01*
X0363058Y0197594D01*
X0363089Y0197428D01*
X0363115Y0197261D01*
X0363138Y0197093D01*
X0363157Y0196925D01*
X0363171Y0196757D01*
X0363182Y0196588D01*
X0363188Y0196419D01*
X0363190Y0196250D01*
X0363188Y0196081D01*
X0363182Y0195912D01*
X0363171Y0195743D01*
X0363157Y0195575D01*
X0363138Y0195407D01*
X0363115Y0195239D01*
X0363089Y0195072D01*
X0363058Y0194906D01*
X0363023Y0194740D01*
X0362984Y0194576D01*
X0362940Y0194412D01*
X0362893Y0194250D01*
X0362842Y0194089D01*
X0362787Y0193929D01*
X0362728Y0193770D01*
X0362666Y0193613D01*
X0362599Y0193458D01*
X0362528Y0193304D01*
X0362454Y0193152D01*
X0362376Y0193002D01*
X0362295Y0192854D01*
X0362210Y0192708D01*
X0362121Y0192564D01*
X0362029Y0192422D01*
X0361933Y0192283D01*
X0361834Y0192146D01*
X0361732Y0192011D01*
X0361626Y0191879D01*
X0361517Y0191750D01*
X0361405Y0191623D01*
X0361290Y0191499D01*
X0361172Y0191378D01*
X0361051Y0191260D01*
X0360927Y0191145D01*
X0360800Y0191033D01*
X0360671Y0190924D01*
X0360539Y0190818D01*
X0360404Y0190716D01*
X0360267Y0190617D01*
X0360128Y0190521D01*
X0359986Y0190429D01*
X0359842Y0190340D01*
X0359696Y0190255D01*
X0359548Y0190174D01*
X0359398Y0190096D01*
X0359246Y0190022D01*
X0359092Y0189951D01*
X0358937Y0189884D01*
X0358780Y0189822D01*
X0358621Y0189763D01*
X0358461Y0189708D01*
X0358300Y0189657D01*
X0358138Y0189610D01*
X0357974Y0189566D01*
X0357810Y0189527D01*
X0357644Y0189492D01*
X0357478Y0189461D01*
X0357311Y0189435D01*
X0357143Y0189412D01*
X0356975Y0189393D01*
X0356807Y0189379D01*
X0356638Y0189368D01*
X0356469Y0189362D01*
X0356300Y0189360D01*
X0356131Y0189362D01*
X0355962Y0189368D01*
X0355793Y0189379D01*
X0355625Y0189393D01*
X0355457Y0189412D01*
X0355289Y0189435D01*
X0355122Y0189461D01*
X0354956Y0189492D01*
X0354790Y0189527D01*
X0354626Y0189566D01*
X0354462Y0189610D01*
X0354300Y0189657D01*
X0354139Y0189708D01*
X0353979Y0189763D01*
X0353820Y0189822D01*
X0353663Y0189884D01*
X0353508Y0189951D01*
X0353354Y0190022D01*
X0353202Y0190096D01*
X0353052Y0190174D01*
X0352904Y0190255D01*
X0352758Y0190340D01*
X0352614Y0190429D01*
X0352472Y0190521D01*
X0352333Y0190617D01*
X0352196Y0190716D01*
X0352061Y0190818D01*
X0351929Y0190924D01*
X0351800Y0191033D01*
X0351673Y0191145D01*
X0351549Y0191260D01*
X0351428Y0191378D01*
X0351310Y0191499D01*
X0351195Y0191623D01*
X0351083Y0191750D01*
X0350974Y0191879D01*
X0350868Y0192011D01*
X0350766Y0192146D01*
X0350667Y0192283D01*
X0350571Y0192422D01*
X0350479Y0192564D01*
X0350390Y0192708D01*
X0350305Y0192854D01*
X0350224Y0193002D01*
X0350146Y0193152D01*
X0350072Y0193304D01*
X0350001Y0193458D01*
X0349934Y0193613D01*
X0349872Y0193770D01*
X0349813Y0193929D01*
X0349758Y0194089D01*
X0349707Y0194250D01*
X0349660Y0194412D01*
X0349616Y0194576D01*
X0349577Y0194740D01*
X0349542Y0194906D01*
X0349511Y0195072D01*
X0349485Y0195239D01*
X0349462Y0195407D01*
X0349443Y0195575D01*
X0349429Y0195743D01*
X0349418Y0195912D01*
X0349412Y0196081D01*
X0349410Y0196250D01*
X0019410Y0196250D02*
X0019412Y0196419D01*
X0019418Y0196588D01*
X0019429Y0196757D01*
X0019443Y0196925D01*
X0019462Y0197093D01*
X0019485Y0197261D01*
X0019511Y0197428D01*
X0019542Y0197594D01*
X0019577Y0197760D01*
X0019616Y0197924D01*
X0019660Y0198088D01*
X0019707Y0198250D01*
X0019758Y0198411D01*
X0019813Y0198571D01*
X0019872Y0198730D01*
X0019934Y0198887D01*
X0020001Y0199042D01*
X0020072Y0199196D01*
X0020146Y0199348D01*
X0020224Y0199498D01*
X0020305Y0199646D01*
X0020390Y0199792D01*
X0020479Y0199936D01*
X0020571Y0200078D01*
X0020667Y0200217D01*
X0020766Y0200354D01*
X0020868Y0200489D01*
X0020974Y0200621D01*
X0021083Y0200750D01*
X0021195Y0200877D01*
X0021310Y0201001D01*
X0021428Y0201122D01*
X0021549Y0201240D01*
X0021673Y0201355D01*
X0021800Y0201467D01*
X0021929Y0201576D01*
X0022061Y0201682D01*
X0022196Y0201784D01*
X0022333Y0201883D01*
X0022472Y0201979D01*
X0022614Y0202071D01*
X0022758Y0202160D01*
X0022904Y0202245D01*
X0023052Y0202326D01*
X0023202Y0202404D01*
X0023354Y0202478D01*
X0023508Y0202549D01*
X0023663Y0202616D01*
X0023820Y0202678D01*
X0023979Y0202737D01*
X0024139Y0202792D01*
X0024300Y0202843D01*
X0024462Y0202890D01*
X0024626Y0202934D01*
X0024790Y0202973D01*
X0024956Y0203008D01*
X0025122Y0203039D01*
X0025289Y0203065D01*
X0025457Y0203088D01*
X0025625Y0203107D01*
X0025793Y0203121D01*
X0025962Y0203132D01*
X0026131Y0203138D01*
X0026300Y0203140D01*
X0026469Y0203138D01*
X0026638Y0203132D01*
X0026807Y0203121D01*
X0026975Y0203107D01*
X0027143Y0203088D01*
X0027311Y0203065D01*
X0027478Y0203039D01*
X0027644Y0203008D01*
X0027810Y0202973D01*
X0027974Y0202934D01*
X0028138Y0202890D01*
X0028300Y0202843D01*
X0028461Y0202792D01*
X0028621Y0202737D01*
X0028780Y0202678D01*
X0028937Y0202616D01*
X0029092Y0202549D01*
X0029246Y0202478D01*
X0029398Y0202404D01*
X0029548Y0202326D01*
X0029696Y0202245D01*
X0029842Y0202160D01*
X0029986Y0202071D01*
X0030128Y0201979D01*
X0030267Y0201883D01*
X0030404Y0201784D01*
X0030539Y0201682D01*
X0030671Y0201576D01*
X0030800Y0201467D01*
X0030927Y0201355D01*
X0031051Y0201240D01*
X0031172Y0201122D01*
X0031290Y0201001D01*
X0031405Y0200877D01*
X0031517Y0200750D01*
X0031626Y0200621D01*
X0031732Y0200489D01*
X0031834Y0200354D01*
X0031933Y0200217D01*
X0032029Y0200078D01*
X0032121Y0199936D01*
X0032210Y0199792D01*
X0032295Y0199646D01*
X0032376Y0199498D01*
X0032454Y0199348D01*
X0032528Y0199196D01*
X0032599Y0199042D01*
X0032666Y0198887D01*
X0032728Y0198730D01*
X0032787Y0198571D01*
X0032842Y0198411D01*
X0032893Y0198250D01*
X0032940Y0198088D01*
X0032984Y0197924D01*
X0033023Y0197760D01*
X0033058Y0197594D01*
X0033089Y0197428D01*
X0033115Y0197261D01*
X0033138Y0197093D01*
X0033157Y0196925D01*
X0033171Y0196757D01*
X0033182Y0196588D01*
X0033188Y0196419D01*
X0033190Y0196250D01*
X0033188Y0196081D01*
X0033182Y0195912D01*
X0033171Y0195743D01*
X0033157Y0195575D01*
X0033138Y0195407D01*
X0033115Y0195239D01*
X0033089Y0195072D01*
X0033058Y0194906D01*
X0033023Y0194740D01*
X0032984Y0194576D01*
X0032940Y0194412D01*
X0032893Y0194250D01*
X0032842Y0194089D01*
X0032787Y0193929D01*
X0032728Y0193770D01*
X0032666Y0193613D01*
X0032599Y0193458D01*
X0032528Y0193304D01*
X0032454Y0193152D01*
X0032376Y0193002D01*
X0032295Y0192854D01*
X0032210Y0192708D01*
X0032121Y0192564D01*
X0032029Y0192422D01*
X0031933Y0192283D01*
X0031834Y0192146D01*
X0031732Y0192011D01*
X0031626Y0191879D01*
X0031517Y0191750D01*
X0031405Y0191623D01*
X0031290Y0191499D01*
X0031172Y0191378D01*
X0031051Y0191260D01*
X0030927Y0191145D01*
X0030800Y0191033D01*
X0030671Y0190924D01*
X0030539Y0190818D01*
X0030404Y0190716D01*
X0030267Y0190617D01*
X0030128Y0190521D01*
X0029986Y0190429D01*
X0029842Y0190340D01*
X0029696Y0190255D01*
X0029548Y0190174D01*
X0029398Y0190096D01*
X0029246Y0190022D01*
X0029092Y0189951D01*
X0028937Y0189884D01*
X0028780Y0189822D01*
X0028621Y0189763D01*
X0028461Y0189708D01*
X0028300Y0189657D01*
X0028138Y0189610D01*
X0027974Y0189566D01*
X0027810Y0189527D01*
X0027644Y0189492D01*
X0027478Y0189461D01*
X0027311Y0189435D01*
X0027143Y0189412D01*
X0026975Y0189393D01*
X0026807Y0189379D01*
X0026638Y0189368D01*
X0026469Y0189362D01*
X0026300Y0189360D01*
X0026131Y0189362D01*
X0025962Y0189368D01*
X0025793Y0189379D01*
X0025625Y0189393D01*
X0025457Y0189412D01*
X0025289Y0189435D01*
X0025122Y0189461D01*
X0024956Y0189492D01*
X0024790Y0189527D01*
X0024626Y0189566D01*
X0024462Y0189610D01*
X0024300Y0189657D01*
X0024139Y0189708D01*
X0023979Y0189763D01*
X0023820Y0189822D01*
X0023663Y0189884D01*
X0023508Y0189951D01*
X0023354Y0190022D01*
X0023202Y0190096D01*
X0023052Y0190174D01*
X0022904Y0190255D01*
X0022758Y0190340D01*
X0022614Y0190429D01*
X0022472Y0190521D01*
X0022333Y0190617D01*
X0022196Y0190716D01*
X0022061Y0190818D01*
X0021929Y0190924D01*
X0021800Y0191033D01*
X0021673Y0191145D01*
X0021549Y0191260D01*
X0021428Y0191378D01*
X0021310Y0191499D01*
X0021195Y0191623D01*
X0021083Y0191750D01*
X0020974Y0191879D01*
X0020868Y0192011D01*
X0020766Y0192146D01*
X0020667Y0192283D01*
X0020571Y0192422D01*
X0020479Y0192564D01*
X0020390Y0192708D01*
X0020305Y0192854D01*
X0020224Y0193002D01*
X0020146Y0193152D01*
X0020072Y0193304D01*
X0020001Y0193458D01*
X0019934Y0193613D01*
X0019872Y0193770D01*
X0019813Y0193929D01*
X0019758Y0194089D01*
X0019707Y0194250D01*
X0019660Y0194412D01*
X0019616Y0194576D01*
X0019577Y0194740D01*
X0019542Y0194906D01*
X0019511Y0195072D01*
X0019485Y0195239D01*
X0019462Y0195407D01*
X0019443Y0195575D01*
X0019429Y0195743D01*
X0019418Y0195912D01*
X0019412Y0196081D01*
X0019410Y0196250D01*
D11*
X0269800Y0172850D03*
X0269800Y0170350D03*
X0269800Y0167750D03*
X0269800Y0165250D03*
X0269800Y0162650D03*
X0269800Y0160050D03*
X0269800Y0157550D03*
X0269800Y0154950D03*
X0269800Y0152450D03*
X0269800Y0149850D03*
X0269800Y0147250D03*
X0269800Y0144750D03*
X0269800Y0142150D03*
X0269800Y0139650D03*
X0292800Y0139650D03*
X0292800Y0142150D03*
X0292800Y0144750D03*
X0292800Y0147250D03*
X0292800Y0149850D03*
X0292800Y0152450D03*
X0292800Y0154950D03*
X0292800Y0157550D03*
X0292800Y0160050D03*
X0292800Y0162650D03*
X0292800Y0165250D03*
X0292800Y0167750D03*
X0292800Y0170350D03*
X0292800Y0172850D03*
D12*
X0099351Y0105974D03*
X0099351Y0102825D03*
X0099351Y0099675D03*
X0099351Y0096526D03*
X0093249Y0096526D03*
X0093249Y0099675D03*
X0093249Y0102825D03*
X0093249Y0105974D03*
D13*
X0198250Y0143750D03*
X0198250Y0148750D03*
X0198250Y0153750D03*
X0198250Y0158750D03*
X0198250Y0163750D03*
X0198250Y0168750D03*
X0198250Y0173750D03*
X0224350Y0173750D03*
X0224350Y0168750D03*
X0224350Y0163750D03*
X0224350Y0158750D03*
X0224350Y0153750D03*
X0224350Y0148750D03*
X0224350Y0143750D03*
D14*
X0226576Y0119301D03*
X0229725Y0119301D03*
X0232875Y0119301D03*
X0236024Y0119301D03*
X0236024Y0113199D03*
X0232875Y0113199D03*
X0229725Y0113199D03*
X0226576Y0113199D03*
X0206024Y0113199D03*
X0202875Y0113199D03*
X0199725Y0113199D03*
X0196576Y0113199D03*
X0196576Y0119301D03*
X0199725Y0119301D03*
X0202875Y0119301D03*
X0206024Y0119301D03*
X0261576Y0119301D03*
X0264725Y0119301D03*
X0267875Y0119301D03*
X0271024Y0119301D03*
X0271024Y0113199D03*
X0267875Y0113199D03*
X0264725Y0113199D03*
X0261576Y0113199D03*
X0291576Y0113199D03*
X0294725Y0113199D03*
X0297875Y0113199D03*
X0301024Y0113199D03*
X0301024Y0119301D03*
X0297875Y0119301D03*
X0294725Y0119301D03*
X0291576Y0119301D03*
X0316576Y0148199D03*
X0319725Y0148199D03*
X0322875Y0148199D03*
X0326024Y0148199D03*
X0326024Y0154301D03*
X0322875Y0154301D03*
X0319725Y0154301D03*
X0316576Y0154301D03*
D15*
X0327363Y0121250D03*
X0335237Y0121250D03*
X0347363Y0121250D03*
X0355237Y0121250D03*
X0285237Y0191250D03*
X0277363Y0191250D03*
X0155237Y0161250D03*
X0147363Y0161250D03*
X0070237Y0191250D03*
X0062363Y0191250D03*
X0062363Y0106250D03*
X0070237Y0106250D03*
D16*
X0241280Y0163297D03*
X0241280Y0169203D03*
X0251320Y0169203D03*
X0251320Y0163297D03*
X0311280Y0173297D03*
X0311280Y0179203D03*
X0321320Y0179203D03*
X0321320Y0173297D03*
D17*
X0317875Y0173297D03*
X0314725Y0173297D03*
X0314725Y0179203D03*
X0317875Y0179203D03*
X0247875Y0169203D03*
X0244725Y0169203D03*
X0244725Y0163297D03*
X0247875Y0163297D03*
D18*
X0138200Y0152274D03*
X0138200Y0149124D03*
X0138200Y0145974D03*
X0138200Y0142825D03*
X0138200Y0139675D03*
X0138200Y0136526D03*
X0138200Y0133376D03*
X0138200Y0130226D03*
X0104400Y0130226D03*
X0104400Y0133376D03*
X0104400Y0136526D03*
X0104400Y0139675D03*
X0104400Y0142825D03*
X0104400Y0145974D03*
X0104400Y0149124D03*
X0104400Y0152274D03*
D19*
X0110276Y0158150D03*
X0113426Y0158150D03*
X0116576Y0158150D03*
X0119725Y0158150D03*
X0122875Y0158150D03*
X0126024Y0158150D03*
X0129174Y0158150D03*
X0132324Y0158150D03*
X0132324Y0124350D03*
X0129174Y0124350D03*
X0126024Y0124350D03*
X0122875Y0124350D03*
X0119725Y0124350D03*
X0116576Y0124350D03*
X0113426Y0124350D03*
X0110276Y0124350D03*
D20*
X0066300Y0127250D03*
X0066300Y0165250D03*
D21*
X0126300Y0172510D03*
X0126300Y0179990D03*
X0126300Y0192510D03*
X0126300Y0199990D03*
D22*
X0332200Y0103650D03*
X0341200Y0103650D03*
X0350200Y0103650D03*
D23*
X0341300Y0078850D03*
D24*
X0171300Y0121250D03*
X0161300Y0121250D03*
X0161300Y0131250D03*
X0171300Y0131250D03*
X0171300Y0141250D03*
X0161300Y0141250D03*
D25*
X0035040Y0161250D03*
X0027560Y0161250D03*
D26*
X0023426Y0134636D03*
X0039174Y0134636D03*
X0039174Y0107864D03*
X0023426Y0107864D03*
D27*
X0153300Y0181250D02*
X0159300Y0181250D01*
X0159300Y0191250D02*
X0153300Y0191250D01*
D28*
X0148800Y0081250D03*
X0138800Y0081250D03*
X0128800Y0081250D03*
X0118800Y0081250D03*
X0113800Y0071250D03*
X0123800Y0071250D03*
X0133800Y0071250D03*
X0143800Y0071250D03*
X0188800Y0071250D03*
X0198800Y0071250D03*
X0208800Y0071250D03*
X0218800Y0071250D03*
X0213800Y0081250D03*
X0203800Y0081250D03*
X0193800Y0081250D03*
X0223800Y0081250D03*
X0263800Y0071250D03*
X0273800Y0071250D03*
X0283800Y0071250D03*
X0293800Y0071250D03*
X0288800Y0081250D03*
X0278800Y0081250D03*
X0268800Y0081250D03*
X0298800Y0081250D03*
X0073800Y0081250D03*
X0063800Y0081250D03*
X0053800Y0081250D03*
X0043800Y0081250D03*
X0038800Y0071250D03*
X0048800Y0071250D03*
X0058800Y0071250D03*
X0068800Y0071250D03*
D29*
X0086300Y0056250D03*
X0101300Y0056250D03*
X0161300Y0056250D03*
X0176300Y0056250D03*
X0236300Y0056250D03*
X0251300Y0056250D03*
X0311300Y0056250D03*
X0026300Y0056250D03*
D30*
X0343406Y0055325D03*
X0361910Y0043514D03*
X0343406Y0032096D03*
D31*
X0341300Y0141250D03*
X0351300Y0141250D03*
X0351300Y0151250D03*
X0341300Y0151250D03*
X0341300Y0161250D03*
X0351300Y0161250D03*
X0351300Y0171250D03*
X0341300Y0171250D03*
D32*
X0091300Y0201250D03*
D33*
X0091300Y0191250D03*
X0091300Y0181250D03*
X0091300Y0171250D03*
D34*
X0062363Y0191250D02*
X0061910Y0191447D01*
X0057973Y0191447D01*
X0104400Y0145974D02*
X0105217Y0145679D01*
X0108662Y0145679D01*
X0111123Y0143219D01*
X0138190Y0143219D01*
X0138200Y0142825D01*
X0142619Y0161427D02*
X0147048Y0161427D01*
X0147363Y0161250D01*
X0104400Y0145974D02*
X0104233Y0145679D01*
X0100296Y0145679D01*
X0100296Y0140758D01*
X0099804Y0140266D01*
X0100296Y0140758D02*
X0101280Y0139774D01*
X0104233Y0139774D01*
X0104400Y0139675D01*
X0062363Y0106250D02*
X0061910Y0105817D01*
X0044194Y0088100D01*
X0043702Y0088593D01*
X0042717Y0088593D01*
X0024017Y0107293D01*
X0023426Y0107864D01*
X0023524Y0108278D01*
X0023524Y0134360D01*
X0023426Y0134636D01*
X0093249Y0102825D02*
X0093406Y0102372D01*
X0096359Y0102372D01*
X0096359Y0097943D01*
X0095375Y0096959D01*
X0095867Y0096467D01*
X0095867Y0081703D01*
X0118505Y0081703D01*
X0118800Y0081250D01*
X0095375Y0096959D02*
X0093898Y0096959D01*
X0093406Y0096467D01*
X0093249Y0096526D01*
X0044194Y0088100D02*
X0044194Y0081703D01*
X0043800Y0081250D01*
X0171300Y0121250D02*
X0171654Y0121073D01*
X0176576Y0116152D01*
X0200198Y0116152D01*
X0204627Y0116152D01*
X0205611Y0115167D01*
X0205611Y0113199D01*
X0206024Y0113199D01*
X0200198Y0113199D02*
X0200198Y0116152D01*
X0200198Y0113199D02*
X0199725Y0113199D01*
X0247442Y0126978D02*
X0330119Y0126978D01*
X0335040Y0122057D01*
X0335237Y0121250D01*
X0335040Y0121073D01*
X0335040Y0103848D01*
X0332580Y0103848D01*
X0332200Y0103650D01*
X0331595Y0103356D01*
X0331103Y0103356D01*
X0331103Y0067923D01*
X0343406Y0055620D01*
X0343406Y0055325D01*
X0311418Y0056604D02*
X0311300Y0056250D01*
X0311418Y0056604D02*
X0311418Y0105325D01*
X0327166Y0121073D01*
X0327363Y0121250D01*
X0347363Y0121250D02*
X0347835Y0121565D01*
X0347835Y0125994D01*
X0359646Y0125994D01*
X0359646Y0113199D01*
X0350296Y0103848D01*
X0350200Y0103650D01*
X0347835Y0125994D02*
X0347835Y0134360D01*
X0351280Y0137805D01*
X0351280Y0141250D01*
X0351300Y0141250D01*
X0317875Y0173297D02*
X0317816Y0173238D01*
X0315355Y0173238D01*
X0314725Y0173297D01*
X0314371Y0173238D01*
X0311418Y0173238D01*
X0311280Y0173297D01*
X0310434Y0173238D01*
X0307973Y0173238D01*
X0297639Y0165364D02*
X0293209Y0165364D01*
X0292800Y0165250D01*
X0269800Y0139650D02*
X0270080Y0139281D01*
X0270080Y0136821D01*
X0240552Y0162904D02*
X0238337Y0160689D01*
X0238091Y0160935D01*
X0238337Y0160689D02*
X0236615Y0158967D01*
X0224804Y0158967D01*
X0224350Y0158750D01*
X0218406Y0156014D02*
X0217422Y0156998D01*
X0200198Y0156998D01*
X0198721Y0158474D01*
X0198250Y0158750D01*
X0240552Y0162904D02*
X0241280Y0163297D01*
X0241536Y0163396D01*
X0244489Y0163396D01*
X0244725Y0163297D01*
X0245473Y0163396D01*
X0247442Y0163396D01*
X0247875Y0163297D01*
X0248426Y0163396D01*
X0250887Y0163396D01*
X0251320Y0163297D01*
X0285237Y0191250D02*
X0285335Y0191447D01*
X0289765Y0191447D01*
D35*
X0289765Y0191447D03*
X0302560Y0177175D03*
X0307973Y0173238D03*
X0297639Y0165364D03*
X0287796Y0162411D03*
X0311910Y0150600D03*
X0318800Y0157490D03*
X0336517Y0156998D03*
X0298131Y0135344D03*
X0298131Y0131900D03*
X0301576Y0131900D03*
X0287796Y0139774D03*
X0275493Y0131900D03*
X0268111Y0131900D03*
X0264666Y0131900D03*
X0261221Y0131900D03*
X0270080Y0136821D03*
X0268111Y0124026D03*
X0264666Y0124026D03*
X0261221Y0124026D03*
X0275493Y0124026D03*
X0288780Y0115659D03*
X0294686Y0109754D03*
X0298131Y0109754D03*
X0304036Y0114675D03*
X0308957Y0113199D03*
X0304036Y0118120D03*
X0285335Y0088593D03*
X0239076Y0111722D03*
X0238583Y0115659D03*
X0229725Y0109754D03*
X0234154Y0106801D03*
X0223820Y0114675D03*
X0205119Y0106309D03*
X0205119Y0102864D03*
X0170178Y0111230D03*
X0147540Y0127470D03*
X0147540Y0147156D03*
X0151969Y0148632D03*
X0148524Y0152077D03*
X0139174Y0155522D03*
X0142619Y0161427D03*
X0131300Y0169301D03*
X0126379Y0164380D03*
X0122442Y0164380D03*
X0119489Y0162904D03*
X0114568Y0162904D03*
X0103249Y0179144D03*
X0079627Y0156014D03*
X0084548Y0150600D03*
X0099804Y0140266D03*
X0146556Y0171762D03*
X0158859Y0155522D03*
X0181005Y0151093D03*
X0192324Y0151093D03*
X0208564Y0143711D03*
X0208564Y0135344D03*
X0206103Y0132884D03*
X0223820Y0131900D03*
X0231694Y0131900D03*
X0235139Y0131900D03*
X0238583Y0131900D03*
X0236123Y0126978D03*
X0247442Y0126978D03*
X0218406Y0156014D03*
X0218406Y0159951D03*
X0238091Y0160935D03*
X0183465Y0136821D03*
X0057973Y0191447D03*
D36*
X0070237Y0191250D02*
X0070276Y0190955D01*
X0070276Y0164872D01*
X0070769Y0164872D01*
X0079627Y0156014D01*
X0080119Y0153061D02*
X0086024Y0158967D01*
X0086024Y0166348D01*
X0093406Y0166348D01*
X0093898Y0166841D01*
X0149509Y0166841D01*
X0154922Y0161427D01*
X0155237Y0161250D01*
X0155414Y0160935D01*
X0158859Y0160935D01*
X0158859Y0155522D01*
X0157875Y0153061D02*
X0156398Y0154537D01*
X0146064Y0154537D01*
X0138682Y0161919D01*
X0129331Y0161919D01*
X0129331Y0158474D01*
X0129174Y0158150D01*
X0126379Y0158474D02*
X0126024Y0158150D01*
X0126379Y0158474D02*
X0126379Y0164380D01*
X0122442Y0164380D02*
X0122442Y0158474D01*
X0122875Y0158150D01*
X0119725Y0158150D02*
X0119489Y0157982D01*
X0119489Y0154045D01*
X0108170Y0154045D01*
X0107186Y0155030D01*
X0085040Y0155030D01*
X0069292Y0139281D01*
X0043702Y0139281D01*
X0039272Y0134852D01*
X0039174Y0134636D01*
X0039272Y0134360D01*
X0039272Y0108278D01*
X0039174Y0107864D01*
X0039765Y0110738D01*
X0066339Y0110738D01*
X0066339Y0102372D01*
X0066831Y0101880D01*
X0073721Y0101880D01*
X0080119Y0108278D01*
X0148032Y0108278D01*
X0160828Y0121073D01*
X0161300Y0121250D01*
X0159843Y0126486D02*
X0153938Y0120581D01*
X0129331Y0120581D01*
X0129331Y0124026D01*
X0129174Y0124350D01*
X0132324Y0124350D02*
X0132776Y0124518D01*
X0135729Y0127470D01*
X0147540Y0127470D01*
X0139174Y0130915D02*
X0138682Y0130423D01*
X0138200Y0130226D01*
X0139174Y0130915D02*
X0160828Y0130915D01*
X0161300Y0131250D01*
X0159843Y0126486D02*
X0164765Y0126486D01*
X0169194Y0130915D01*
X0171162Y0130915D01*
X0171300Y0131250D01*
X0170178Y0126486D02*
X0173131Y0126486D01*
X0183465Y0136821D01*
X0188879Y0145679D02*
X0193308Y0141250D01*
X0221851Y0141250D01*
X0224312Y0143711D01*
X0224350Y0143750D01*
X0224312Y0144203D01*
X0224312Y0148632D01*
X0224350Y0148750D01*
X0224312Y0153553D02*
X0218406Y0153553D01*
X0208564Y0143711D01*
X0208072Y0139281D02*
X0169686Y0139281D01*
X0171300Y0141250D01*
X0171162Y0141250D01*
X0165749Y0135837D01*
X0143111Y0135837D01*
X0140650Y0133376D01*
X0138200Y0133376D01*
X0138190Y0133376D01*
X0137698Y0133868D01*
X0112599Y0133868D01*
X0108662Y0137805D01*
X0108170Y0137805D01*
X0108170Y0142726D01*
X0104725Y0142726D01*
X0104400Y0142825D01*
X0105217Y0137313D02*
X0107678Y0137313D01*
X0108170Y0137805D01*
X0105217Y0137313D02*
X0104725Y0136821D01*
X0104400Y0136526D01*
X0103741Y0133868D02*
X0101280Y0133868D01*
X0084548Y0150600D01*
X0080119Y0153061D02*
X0035828Y0153061D01*
X0027954Y0160935D01*
X0027560Y0161250D01*
X0023524Y0164872D02*
X0023524Y0142234D01*
X0031398Y0142234D01*
X0038780Y0134852D01*
X0039174Y0134636D01*
X0066339Y0127470D02*
X0066300Y0127250D01*
X0066339Y0127470D02*
X0070276Y0127470D01*
X0070276Y0106309D01*
X0070237Y0106250D01*
X0080119Y0105325D02*
X0056497Y0081703D01*
X0054036Y0081703D01*
X0053800Y0081250D01*
X0073800Y0081250D02*
X0074213Y0081703D01*
X0091438Y0098927D01*
X0092422Y0098927D01*
X0092914Y0099419D01*
X0093249Y0099675D01*
X0099312Y0099419D02*
X0099312Y0096959D01*
X0099351Y0096526D01*
X0099312Y0099419D02*
X0099351Y0099675D01*
X0099804Y0099911D01*
X0100296Y0100404D01*
X0162796Y0100404D01*
X0172639Y0110246D01*
X0172639Y0116644D01*
X0169194Y0116644D01*
X0166733Y0119104D01*
X0166733Y0125502D01*
X0169194Y0125502D01*
X0170178Y0126486D01*
X0196261Y0113199D02*
X0196576Y0113199D01*
X0196261Y0113199D02*
X0172639Y0089577D01*
X0136713Y0089577D01*
X0128839Y0081703D01*
X0128800Y0081250D01*
X0148800Y0081250D02*
X0149017Y0081703D01*
X0154922Y0087608D01*
X0202658Y0087608D01*
X0202658Y0113199D01*
X0202875Y0113199D01*
X0203150Y0119104D02*
X0202875Y0119301D01*
X0203150Y0119104D02*
X0205611Y0119104D01*
X0206024Y0119301D01*
X0206103Y0119596D01*
X0206103Y0132884D01*
X0208564Y0135344D02*
X0200198Y0135344D01*
X0200198Y0119596D01*
X0199725Y0119301D01*
X0199706Y0119104D01*
X0196753Y0119104D01*
X0196576Y0119301D01*
X0208072Y0139281D02*
X0217914Y0129439D01*
X0339469Y0129439D01*
X0339469Y0121565D01*
X0347589Y0113445D01*
X0355217Y0121073D01*
X0355237Y0121250D01*
X0347589Y0113445D02*
X0341438Y0107293D01*
X0341438Y0103848D01*
X0341200Y0103650D01*
X0308957Y0113199D02*
X0308957Y0071368D01*
X0294194Y0071368D01*
X0293800Y0071250D01*
X0283800Y0071250D02*
X0283367Y0071368D01*
X0283367Y0082687D01*
X0282875Y0083179D01*
X0282875Y0116152D01*
X0288780Y0122057D01*
X0294686Y0122057D01*
X0294686Y0119596D01*
X0294725Y0119301D01*
X0291576Y0119301D02*
X0291241Y0119104D01*
X0290257Y0118120D01*
X0287796Y0118120D01*
X0285335Y0115659D01*
X0285335Y0088593D01*
X0289272Y0081703D02*
X0293209Y0085640D01*
X0306497Y0085640D01*
X0306497Y0119104D01*
X0303544Y0122057D01*
X0298131Y0122057D01*
X0298131Y0119596D01*
X0297875Y0119301D01*
X0301024Y0119301D02*
X0301083Y0119104D01*
X0302068Y0118120D01*
X0304036Y0118120D01*
X0304036Y0114675D02*
X0302560Y0114675D01*
X0301083Y0113199D01*
X0301024Y0113199D01*
X0298131Y0113199D02*
X0297875Y0113199D01*
X0298131Y0113199D02*
X0298131Y0109754D01*
X0294686Y0109754D02*
X0294686Y0113199D01*
X0294725Y0113199D01*
X0291576Y0113199D02*
X0291241Y0113199D01*
X0288780Y0115659D01*
X0273524Y0114675D02*
X0273524Y0071368D01*
X0273800Y0071250D01*
X0270572Y0081703D02*
X0269095Y0081703D01*
X0268800Y0081250D01*
X0270572Y0081703D02*
X0270572Y0113199D01*
X0271024Y0113199D01*
X0273524Y0114675D02*
X0272048Y0116152D01*
X0268111Y0116152D01*
X0268111Y0113199D01*
X0267875Y0113199D01*
X0264725Y0113199D02*
X0264666Y0113199D01*
X0264666Y0083179D01*
X0231694Y0083179D01*
X0219883Y0071368D01*
X0218898Y0071368D01*
X0218800Y0071250D01*
X0209056Y0071368D02*
X0208800Y0071250D01*
X0209056Y0071368D02*
X0209056Y0082687D01*
X0212009Y0085640D01*
X0212993Y0085640D01*
X0234154Y0106801D01*
X0233170Y0109262D02*
X0241536Y0109262D01*
X0243013Y0110738D01*
X0243013Y0126978D01*
X0236123Y0126978D01*
X0232678Y0124026D02*
X0222835Y0124026D01*
X0205119Y0106309D01*
X0205119Y0102864D02*
X0224312Y0122057D01*
X0229725Y0122057D01*
X0229725Y0119301D01*
X0232678Y0119596D02*
X0232875Y0119301D01*
X0232678Y0119596D02*
X0232678Y0124026D01*
X0236024Y0119301D02*
X0236123Y0119104D01*
X0237107Y0118120D01*
X0239568Y0118120D01*
X0241044Y0116644D01*
X0241044Y0111722D01*
X0239076Y0111722D01*
X0236123Y0113199D02*
X0236024Y0113199D01*
X0236123Y0113199D02*
X0238583Y0115659D01*
X0233170Y0113199D02*
X0232875Y0113199D01*
X0233170Y0113199D02*
X0233170Y0109262D01*
X0229725Y0109754D02*
X0229725Y0113199D01*
X0226576Y0113199D02*
X0226280Y0113199D01*
X0224804Y0114675D01*
X0223820Y0114675D01*
X0224312Y0117136D02*
X0222835Y0117136D01*
X0204627Y0098927D01*
X0204627Y0085640D01*
X0197737Y0085640D01*
X0193800Y0081703D01*
X0193800Y0081250D01*
X0213800Y0081250D02*
X0213977Y0081703D01*
X0217914Y0085640D01*
X0233662Y0085640D01*
X0261221Y0113199D01*
X0261576Y0113199D01*
X0261576Y0119301D02*
X0261221Y0119596D01*
X0261221Y0124026D01*
X0264666Y0124026D02*
X0264666Y0119596D01*
X0264725Y0119301D01*
X0267875Y0119301D02*
X0268111Y0119596D01*
X0268111Y0124026D01*
X0271064Y0119596D02*
X0275493Y0124026D01*
X0271064Y0119596D02*
X0271024Y0119301D01*
X0268111Y0131900D02*
X0268111Y0135344D01*
X0265650Y0137805D01*
X0265650Y0142234D01*
X0269587Y0142234D01*
X0269800Y0142150D01*
X0270080Y0144695D02*
X0269800Y0144750D01*
X0270080Y0144695D02*
X0275493Y0144695D01*
X0275493Y0131900D01*
X0264666Y0131900D02*
X0264666Y0135837D01*
X0263682Y0136821D01*
X0263682Y0147156D01*
X0269587Y0147156D01*
X0269800Y0147250D01*
X0269587Y0149616D02*
X0269800Y0149850D01*
X0269587Y0149616D02*
X0261221Y0149616D01*
X0261221Y0131900D01*
X0258761Y0152077D02*
X0238583Y0131900D01*
X0235139Y0131900D02*
X0257776Y0154537D01*
X0269587Y0154537D01*
X0269800Y0154950D01*
X0269800Y0152450D02*
X0269587Y0152077D01*
X0258761Y0152077D01*
X0257284Y0157490D02*
X0269587Y0157490D01*
X0269800Y0157550D01*
X0269587Y0159951D02*
X0269800Y0160050D01*
X0269587Y0159951D02*
X0251871Y0159951D01*
X0223820Y0131900D01*
X0231694Y0131900D02*
X0257284Y0157490D01*
X0269800Y0162650D02*
X0270080Y0162411D01*
X0287796Y0162411D01*
X0292800Y0162650D02*
X0293209Y0162904D01*
X0300099Y0162904D01*
X0300099Y0178159D01*
X0304036Y0182096D01*
X0314371Y0182096D01*
X0314371Y0179636D01*
X0314725Y0179203D01*
X0317875Y0179203D02*
X0318308Y0179144D01*
X0318308Y0176191D01*
X0323229Y0176191D01*
X0323721Y0175699D01*
X0323721Y0160443D01*
X0293209Y0160443D01*
X0292800Y0160050D01*
X0292800Y0157550D02*
X0293209Y0157490D01*
X0316339Y0157490D01*
X0316339Y0154537D01*
X0316576Y0154301D01*
X0319292Y0154045D02*
X0319292Y0151585D01*
X0314371Y0151585D01*
X0311418Y0154537D01*
X0293209Y0154537D01*
X0292800Y0154950D01*
X0292800Y0152450D02*
X0293209Y0152077D01*
X0310434Y0152077D01*
X0311910Y0150600D01*
X0316576Y0148199D02*
X0316831Y0148140D01*
X0316831Y0141250D01*
X0341300Y0141250D01*
X0346359Y0136329D02*
X0315355Y0136329D01*
X0302068Y0149616D01*
X0293209Y0149616D01*
X0292800Y0149850D01*
X0292800Y0147250D02*
X0293209Y0147156D01*
X0301576Y0147156D01*
X0301576Y0131900D01*
X0298131Y0131900D02*
X0292717Y0137313D01*
X0286812Y0137313D01*
X0285335Y0138789D01*
X0285335Y0144695D01*
X0292717Y0144695D01*
X0292800Y0144750D01*
X0292800Y0142150D02*
X0293209Y0141742D01*
X0298131Y0141742D01*
X0298131Y0135344D01*
X0292800Y0139650D02*
X0292717Y0139774D01*
X0287796Y0139774D01*
X0319784Y0145187D02*
X0335040Y0145187D01*
X0340946Y0151093D01*
X0341300Y0151250D01*
X0336517Y0156998D02*
X0329135Y0149616D01*
X0327166Y0149616D01*
X0326182Y0148632D01*
X0326024Y0148199D01*
X0323229Y0148632D02*
X0323229Y0151585D01*
X0327658Y0151585D01*
X0337009Y0160935D01*
X0340946Y0160935D01*
X0341300Y0161250D01*
X0346359Y0163396D02*
X0346359Y0136329D01*
X0323229Y0148632D02*
X0322875Y0148199D01*
X0319784Y0148140D02*
X0319725Y0148199D01*
X0319784Y0148140D02*
X0319784Y0145187D01*
X0319292Y0154045D02*
X0319725Y0154301D01*
X0322737Y0154537D02*
X0322875Y0154301D01*
X0322737Y0154537D02*
X0322737Y0157490D01*
X0318800Y0157490D01*
X0326024Y0154301D02*
X0326182Y0154537D01*
X0337993Y0166348D01*
X0343406Y0166348D01*
X0346359Y0163396D01*
X0311280Y0179203D02*
X0310926Y0179144D01*
X0308957Y0177175D01*
X0302560Y0177175D01*
X0292717Y0173238D02*
X0292800Y0172850D01*
X0292717Y0173238D02*
X0277461Y0188494D01*
X0277461Y0190955D01*
X0277363Y0191250D01*
X0276969Y0191447D01*
X0272540Y0195876D01*
X0130316Y0195876D01*
X0126871Y0192431D01*
X0126300Y0192510D01*
X0126379Y0192431D01*
X0126379Y0180128D01*
X0126300Y0179990D01*
X0125887Y0181604D01*
X0091438Y0181604D01*
X0091300Y0181250D01*
X0090946Y0181112D01*
X0086024Y0181112D01*
X0086024Y0166348D01*
X0070276Y0164872D02*
X0066339Y0164872D01*
X0066300Y0165250D01*
X0035040Y0161250D02*
X0034843Y0161427D01*
X0030414Y0165856D01*
X0024509Y0165856D01*
X0023524Y0164872D01*
X0070276Y0127470D02*
X0101772Y0127470D01*
X0104233Y0129931D01*
X0104400Y0130226D01*
X0104400Y0133376D02*
X0104233Y0133376D01*
X0103741Y0133868D01*
X0138200Y0149124D02*
X0138682Y0149124D01*
X0139174Y0149616D01*
X0149509Y0149616D01*
X0150985Y0151093D01*
X0177560Y0151093D01*
X0194784Y0168317D01*
X0198229Y0168317D01*
X0198250Y0168750D01*
X0198229Y0169301D01*
X0198229Y0173730D01*
X0198250Y0173750D01*
X0193800Y0176683D02*
X0221851Y0176683D01*
X0224312Y0174222D01*
X0224350Y0173750D01*
X0224312Y0173238D01*
X0224312Y0168809D01*
X0224350Y0168750D01*
X0224350Y0163750D02*
X0224312Y0163396D01*
X0221851Y0163396D01*
X0218406Y0159951D01*
X0224350Y0153750D02*
X0224312Y0153553D01*
X0238583Y0167333D02*
X0238583Y0176191D01*
X0272048Y0176191D01*
X0274017Y0174222D01*
X0274017Y0167825D01*
X0270080Y0167825D01*
X0269800Y0167750D01*
X0269587Y0165364D02*
X0269800Y0165250D01*
X0269587Y0165364D02*
X0254824Y0165364D01*
X0251379Y0168809D01*
X0251320Y0169203D01*
X0247875Y0169203D02*
X0247442Y0168809D01*
X0247442Y0166348D01*
X0239568Y0166348D01*
X0238583Y0167333D01*
X0241280Y0169203D02*
X0241536Y0169301D01*
X0241536Y0174222D01*
X0268603Y0174222D01*
X0269587Y0173238D01*
X0269800Y0172850D01*
X0269587Y0170778D02*
X0266143Y0170778D01*
X0264666Y0172254D01*
X0244981Y0172254D01*
X0244981Y0169301D01*
X0244725Y0169203D01*
X0269587Y0170778D02*
X0269800Y0170350D01*
X0272540Y0178652D02*
X0280414Y0170778D01*
X0292717Y0170778D01*
X0292800Y0170350D01*
X0293702Y0168317D02*
X0296162Y0168317D01*
X0297146Y0169301D01*
X0297146Y0199813D01*
X0126379Y0199813D01*
X0126300Y0199990D01*
X0125887Y0200305D01*
X0091930Y0200305D01*
X0091438Y0200797D01*
X0091300Y0201250D01*
X0103249Y0179144D02*
X0109646Y0172746D01*
X0125887Y0172746D01*
X0126300Y0172510D01*
X0126379Y0172254D01*
X0128347Y0172254D01*
X0131300Y0169301D01*
X0153446Y0169301D01*
X0162796Y0178652D01*
X0272540Y0178652D01*
X0292800Y0167750D02*
X0293209Y0167825D01*
X0293702Y0168317D01*
X0226576Y0119301D02*
X0226280Y0119104D01*
X0224312Y0117136D01*
X0198250Y0143750D02*
X0198229Y0144203D01*
X0198229Y0148140D01*
X0198250Y0148750D01*
X0198229Y0148632D01*
X0151969Y0148632D01*
X0149017Y0145679D02*
X0147540Y0147156D01*
X0149017Y0145679D02*
X0188879Y0145679D01*
X0192324Y0151093D02*
X0194784Y0153553D01*
X0198229Y0153553D01*
X0198250Y0153750D01*
X0198229Y0163396D02*
X0193308Y0163396D01*
X0181005Y0151093D01*
X0170178Y0153061D02*
X0193800Y0176683D01*
X0198250Y0163750D02*
X0198229Y0163396D01*
X0170178Y0153061D02*
X0157875Y0153061D01*
X0148524Y0152077D02*
X0138682Y0152077D01*
X0138200Y0152274D01*
X0139174Y0155522D02*
X0135237Y0155522D01*
X0132776Y0157982D01*
X0132324Y0158150D01*
X0119489Y0162904D02*
X0117028Y0162904D01*
X0117028Y0158474D01*
X0116576Y0158150D01*
X0113583Y0158474D02*
X0113426Y0158150D01*
X0113583Y0158474D02*
X0113583Y0162904D01*
X0114568Y0162904D01*
X0146556Y0171762D02*
X0146556Y0190955D01*
X0155906Y0190955D01*
X0156300Y0191250D01*
X0170178Y0111230D02*
X0165257Y0106309D01*
X0099804Y0106309D01*
X0099351Y0105974D01*
X0099312Y0105817D01*
X0099312Y0102864D01*
X0099351Y0102825D01*
X0093249Y0105974D02*
X0092914Y0105817D01*
X0092422Y0105325D01*
X0080119Y0105325D01*
X0288800Y0081250D02*
X0289272Y0081703D01*
M02*
